<?xml version="1.0" standalone="no"?>
<!DOCTYPE svg PUBLIC "-//W3C//DTD SVG 1.1//EN" "http://www.w3.org/Graphics/SVG/1.1/DTD/svg11.dtd" >
<svg xmlns="http://www.w3.org/2000/svg">
<metadata>Generated by IcoMoon</metadata>
<defs>
<font id="icomoon" horiz-adv-x="1024">
<font-face units-per-em="1024" ascent="960" descent="-64" />
<missing-glyph horiz-adv-x="1024" />
<glyph unicode="&#x20;" horiz-adv-x="512" d="" />
<glyph unicode="&#xe900;" glyph-name="air-conditioner-fill" d="M123.563 441.429c0 0.028 0 0.062 0 0.096 0 10.198 4.016 19.458 10.552 26.286l-0.013-0.014c6.106 6.824 14.94 11.098 24.772 11.098 0.201 0 0.402-0.002 0.602-0.005h-0.030c0.198 0.004 0.432 0.006 0.666 0.006 9.962 0 18.927-4.268 25.167-11.074l0.023-0.025c6.52-6.676 10.542-15.816 10.542-25.896 0-0.166-0.001-0.332-0.003-0.497v0.025c0.002-0.136 0.003-0.297 0.003-0.458 0-9.762-4.037-18.58-10.533-24.877l-0.009-0.009c-6.465-6.515-15.423-10.548-25.323-10.548s-18.858 4.033-25.32 10.546l-0.002 0.002c-6.823 6.063-11.1 14.861-11.1 24.659 0 0.241 0.003 0.481 0.008 0.721l-0.001-0.036zM228.053 441.429c0 0.028 0 0.062 0 0.096 0 10.198 4.016 19.458 10.552 26.286l-0.013-0.014c6.106 6.824 14.94 11.098 24.772 11.098 0.201 0 0.402-0.002 0.602-0.005h170.637l-120.32 120.32c-6.812 5.789-11.105 14.364-11.105 23.941 0 0.298 0.004 0.596 0.012 0.892l-0.001-0.044c-0.001 0.117-0.002 0.255-0.002 0.393 0 20.194 16.371 36.565 36.565 36.565 10.291 0 19.589-4.251 26.233-11.093l119.817-119.817v169.387c-0.001 0.072-0.001 0.157-0.001 0.242 0 10.253 4.25 19.513 11.084 26.116l0.010 0.010c6.478 6.841 15.624 11.098 25.765 11.098 0.212 0 0.424-0.002 0.635-0.006h-0.032c0.17 0.003 0.371 0.005 0.572 0.005 9.832 0 18.666-4.275 24.744-11.067l0.028-0.032c6.52-6.676 10.542-15.816 10.542-25.896 0-0.166-0.001-0.332-0.003-0.497v0.025-170.453l120.832 121.387c6.346 6.796 15.344 11.047 25.335 11.093h0.009c10.161-0.041 19.323-4.285 25.844-11.081l0.012-0.012c5.911-6.72 9.519-15.592 9.519-25.307 0-0.193-0.001-0.386-0.004-0.578v0.029c0.015-0.371 0.023-0.806 0.023-1.243 0-9.157-3.637-17.464-9.546-23.555l0.008 0.009-120.32-120.32h170.667c0.046 0 0.101 0 0.156 0 9.788 0 18.578-4.275 24.604-11.060l0.029-0.034c6.52-6.676 10.542-15.816 10.542-25.896 0-0.166-0.001-0.332-0.003-0.497v0.025c-0.375-19.382-15.989-34.996-35.335-35.37l-0.035-0.001h-170.837l120.832-120.832c5.9-6.083 9.538-14.39 9.538-23.546 0-0.437-0.008-0.872-0.025-1.305l0.002 0.062c0.003-0.163 0.004-0.356 0.004-0.549 0-9.714-3.607-18.586-9.555-25.349l0.037 0.043c-6.533-6.809-15.695-11.052-25.848-11.093h-0.008c-0.047 0-0.103 0-0.159 0-9.959 0-18.922 4.265-25.162 11.069l-0.023 0.025-120.832 121.387v-170.965c0.002-0.139 0.003-0.304 0.003-0.469 0-9.919-4.029-18.897-10.541-25.386l-0.001-0.001c-6.306-6.505-15.124-10.542-24.886-10.542-0.161 0-0.322 0.001-0.482 0.003h0.024c-0.028 0-0.062 0-0.096 0-10.198 0-19.458 4.016-26.286 10.552l0.014-0.013c-6.832 6.263-11.1 15.228-11.1 25.19 0 0.234 0.002 0.468 0.007 0.701l-0.001-0.035v169.899l-119.808-119.808c-6.659-6.528-15.789-10.558-25.86-10.558-20.218 0-36.644 16.239-36.945 36.385v0.028c-0.002 0.149-0.004 0.325-0.004 0.501 0 9.682 4.283 18.364 11.058 24.255l0.039 0.033 121.387 120.832h-170.965c-0.136-0.002-0.297-0.003-0.458-0.003-9.762 0-18.58 4.037-24.877 10.533l-0.009 0.009c-7.102 4.937-11.693 13.055-11.693 22.246 0 0.549 0.016 1.095 0.049 1.636l-0.004-0.075zM228.565 186.027c0 0.047 0 0.103 0 0.159 0 9.959 4.265 18.922 11.069 25.162l0.025 0.023c5.789 6.812 14.364 11.105 23.941 11.105 0.298 0 0.596-0.004 0.892-0.012l-0.044 0.001c20.012-0.496 36.143-16.434 36.947-36.321l0.002-0.074c0-0.047 0-0.103 0-0.159 0-9.959-4.265-18.922-11.069-25.162l-0.025-0.023c-6.429-6.836-15.533-11.094-25.632-11.094-0.079 0-0.157 0-0.236 0.001h0.012c-0.253-0.007-0.55-0.011-0.848-0.011-9.577 0-18.152 4.293-23.904 11.060l-0.037 0.045c-6.823 6.106-11.098 14.939-11.098 24.771 0 0.186 0.002 0.373 0.005 0.558v-0.028zM228.565 698.411c0 0.047 0 0.103 0 0.159 0 9.959 4.265 18.922 11.069 25.162l0.025 0.023c5.789 6.812 14.364 11.105 23.941 11.105 0.298 0 0.596-0.004 0.892-0.012l-0.044 0.001c20.012-0.496 36.143-16.434 36.947-36.321l0.002-0.074c-0.041-10.161-4.285-19.323-11.081-25.844l-0.012-0.012c-6.429-6.836-15.533-11.094-25.632-11.094-0.079 0-0.157 0-0.236 0.001h0.012c-0.253-0.007-0.55-0.011-0.848-0.011-9.577 0-18.152 4.293-23.904 11.060l-0.037 0.045c-6.799 6.524-11.040 15.668-11.093 25.803v0.010zM484.565 80.469c0 0.046 0 0.101 0 0.156 0 9.788 4.275 18.578 11.060 24.604l0.034 0.029c6.676 6.52 15.816 10.542 25.896 10.542 0.166 0 0.332-0.001 0.497-0.003h-0.025c0.013 0 0.029 0 0.045 0 19.794 0 35.84-16.046 35.84-35.84 0-9.919-4.029-18.897-10.54-25.386l-0.001-0.001c-6.306-6.505-15.124-10.542-24.886-10.542-0.161 0-0.322 0.001-0.482 0.003h0.024c-0.028 0-0.062 0-0.096 0-10.198 0-19.458 4.016-26.286 10.552l0.014-0.013c-6.856 6.166-11.149 15.067-11.149 24.97 0 0.327 0.005 0.652 0.014 0.977l-0.001-0.048zM484.565 803.925c-0.004 0.198-0.006 0.432-0.006 0.666 0 9.962 4.268 18.927 11.074 25.167l0.025 0.023c6.676 6.52 15.816 10.542 25.896 10.542 0.166 0 0.332-0.001 0.497-0.003h-0.025c0.136 0.002 0.297 0.003 0.458 0.003 9.762 0 18.58-4.037 24.877-10.533l0.009-0.009c6.436-6.477 10.414-15.403 10.414-25.259 0-19.765-15.999-35.793-35.753-35.84h-0.004c-0.028 0-0.062 0-0.096 0-10.198 0-19.458 4.016-26.286 10.552l0.014-0.013c-6.844 6.057-11.137 14.863-11.137 24.671 0 0.071 0 0.143 0.001 0.214v-0.011zM741.547 185.984c0 0.047 0 0.103 0 0.159 0 9.959 4.265 18.922 11.069 25.162l0.025 0.023c5.789 6.812 14.364 11.105 23.941 11.105 0.298 0 0.596-0.004 0.892-0.012l-0.044 0.001c20.012-0.496 36.143-16.434 36.947-36.321l0.002-0.074c0-0.047 0-0.103 0-0.159 0-9.959-4.265-18.922-11.069-25.162l-0.025-0.023c-6.429-6.836-15.533-11.094-25.632-11.094-0.079 0-0.157 0-0.236 0.001h0.012c-0.253-0.007-0.55-0.011-0.848-0.011-9.577 0-18.152 4.293-23.904 11.060l-0.037 0.045c-6.849 6.108-11.14 14.957-11.14 24.809 0 0.188 0.002 0.376 0.005 0.563v-0.028zM741.547 698.368c0 0.047 0 0.103 0 0.159 0 9.959 4.265 18.922 11.069 25.162l0.025 0.023c5.789 6.812 14.364 11.105 23.941 11.105 0.298 0 0.596-0.004 0.892-0.012l-0.044 0.001c20.012-0.496 36.143-16.434 36.947-36.321l0.002-0.074c-0.041-10.161-4.285-19.323-11.081-25.844l-0.012-0.012c-6.429-6.836-15.533-11.094-25.632-11.094-0.079 0-0.157 0-0.236 0.001h0.012c-0.253-0.007-0.55-0.011-0.848-0.011-9.577 0-18.152 4.293-23.904 11.060l-0.037 0.045c-6.824 6.528-11.083 15.689-11.136 25.846v0.010zM847.104 441.387c0 0.028 0 0.062 0 0.096 0 10.198 4.016 19.458 10.552 26.286l-0.013-0.014c6.263 6.832 15.228 11.1 25.19 11.1 0.234 0 0.468-0.002 0.701-0.007l-0.035 0.001c0.046 0 0.101 0 0.156 0 9.788 0 18.578-4.275 24.604-11.060l0.029-0.034c6.52-6.676 10.542-15.816 10.542-25.896 0-0.166-0.001-0.332-0.003-0.497v0.025c-0.262-19.593-16.206-35.376-35.837-35.376-9.92 0-18.899 4.031-25.389 10.543l-0.001 0.001c-6.525 6.228-10.582 14.994-10.582 24.706 0 0.059 0 0.118 0 0.177v-0.009zM123.563 441.472c0 0.028 0 0.062 0 0.096 0 10.198 4.016 19.458 10.552 26.286l-0.013-0.014c6.106 6.824 14.94 11.098 24.772 11.098 0.201 0 0.402-0.002 0.602-0.005h-0.030c0.198 0.004 0.432 0.006 0.666 0.006 9.962 0 18.927-4.268 25.167-11.074l0.023-0.025c6.52-6.676 10.542-15.816 10.542-25.896 0-0.166-0.001-0.332-0.003-0.497v0.025c0.002-0.136 0.003-0.297 0.003-0.458 0-9.762-4.037-18.58-10.533-24.877l-0.009-0.009c-6.465-6.515-15.423-10.548-25.323-10.548s-18.858 4.033-25.32 10.546l-0.002 0.002c-6.823 6.063-11.1 14.861-11.1 24.659 0 0.241 0.003 0.481 0.008 0.721l-0.001-0.036zM228.565 186.069c0 0.047 0 0.103 0 0.159 0 9.959 4.265 18.922 11.069 25.162l0.025 0.023c5.789 6.812 14.364 11.105 23.941 11.105 0.298 0 0.596-0.004 0.892-0.012l-0.044 0.001c20.012-0.496 36.143-16.434 36.947-36.321l0.002-0.074c0-0.047 0-0.103 0-0.159 0-9.959-4.265-18.922-11.069-25.162l-0.025-0.023c-6.429-6.836-15.533-11.094-25.632-11.094-0.079 0-0.157 0-0.236 0.001h0.012c-0.253-0.007-0.55-0.011-0.848-0.011-9.577 0-18.152 4.293-23.904 11.060l-0.037 0.045c-6.823 6.106-11.098 14.939-11.098 24.771 0 0.186 0.002 0.373 0.005 0.558v-0.028zM228.565 698.453c0 0.047 0 0.103 0 0.159 0 9.959 4.265 18.922 11.069 25.162l0.025 0.023c5.789 6.812 14.364 11.105 23.941 11.105 0.298 0 0.596-0.004 0.892-0.012l-0.044 0.001c20.012-0.496 36.143-16.434 36.947-36.321l0.002-0.074c-0.041-10.161-4.285-19.323-11.081-25.844l-0.012-0.012c-6.429-6.836-15.533-11.094-25.632-11.094-0.079 0-0.157 0-0.236 0.001h0.012c-0.253-0.007-0.55-0.011-0.848-0.011-9.577 0-18.152 4.293-23.904 11.060l-0.037 0.045c-6.799 6.524-11.040 15.668-11.093 25.803v0.010zM484.565 80.512c0 0.046 0 0.101 0 0.156 0 9.788 4.275 18.578 11.060 24.604l0.034 0.029c6.676 6.52 15.816 10.542 25.896 10.542 0.166 0 0.332-0.001 0.497-0.003h-0.025c0.013 0 0.029 0 0.045 0 19.794 0 35.84-16.046 35.84-35.84 0-9.919-4.029-18.897-10.54-25.386l-0.001-0.001c-6.306-6.505-15.124-10.542-24.886-10.542-0.161 0-0.322 0.001-0.482 0.003h0.024c-0.028 0-0.062 0-0.096 0-10.198 0-19.458 4.016-26.286 10.552l0.014-0.013c-6.856 6.166-11.149 15.067-11.149 24.97 0 0.327 0.005 0.652 0.014 0.977l-0.001-0.048zM484.565 803.968c-0.004 0.198-0.006 0.432-0.006 0.666 0 9.962 4.268 18.927 11.074 25.167l0.025 0.023c6.676 6.52 15.816 10.542 25.896 10.542 0.166 0 0.332-0.001 0.497-0.003h-0.025c0.136 0.002 0.297 0.003 0.458 0.003 9.762 0 18.58-4.037 24.877-10.533l0.009-0.009c6.436-6.477 10.414-15.403 10.414-25.259 0-19.765-15.999-35.793-35.753-35.84h-0.004c-0.028 0-0.062 0-0.096 0-10.198 0-19.458 4.016-26.286 10.552l0.014-0.013c-6.844 6.057-11.137 14.863-11.137 24.671 0 0.071 0 0.143 0.001 0.214v-0.011zM741.547 186.027c0 0.047 0 0.103 0 0.159 0 9.959 4.265 18.922 11.069 25.162l0.025 0.023c5.789 6.812 14.364 11.105 23.941 11.105 0.298 0 0.596-0.004 0.892-0.012l-0.044 0.001c20.012-0.496 36.143-16.434 36.947-36.321l0.002-0.074c0-0.047 0-0.103 0-0.159 0-9.959-4.265-18.922-11.069-25.162l-0.025-0.023c-6.429-6.836-15.533-11.094-25.632-11.094-0.079 0-0.157 0-0.236 0.001h0.012c-0.253-0.007-0.55-0.011-0.848-0.011-9.577 0-18.152 4.293-23.904 11.060l-0.037 0.045c-6.849 6.108-11.14 14.957-11.14 24.809 0 0.188 0.002 0.376 0.005 0.563v-0.028zM741.547 698.411c0 0.047 0 0.103 0 0.159 0 9.959 4.265 18.922 11.069 25.162l0.025 0.023c5.789 6.812 14.364 11.105 23.941 11.105 0.298 0 0.596-0.004 0.892-0.012l-0.044 0.001c20.012-0.496 36.143-16.434 36.947-36.321l0.002-0.074c-0.041-10.161-4.285-19.323-11.081-25.844l-0.012-0.012c-6.429-6.836-15.533-11.094-25.632-11.094-0.079 0-0.157 0-0.236 0.001h0.012c-0.253-0.007-0.55-0.011-0.848-0.011-9.577 0-18.152 4.293-23.904 11.060l-0.037 0.045c-6.824 6.528-11.083 15.689-11.136 25.846v0.010zM847.104 441.429c0 0.028 0 0.062 0 0.096 0 10.198 4.016 19.458 10.552 26.286l-0.013-0.014c6.263 6.832 15.228 11.1 25.19 11.1 0.234 0 0.468-0.002 0.701-0.007l-0.035 0.001c0.046 0 0.101 0 0.156 0 9.788 0 18.578-4.275 24.604-11.060l0.029-0.034c6.52-6.676 10.542-15.816 10.542-25.896 0-0.166-0.001-0.332-0.003-0.497v0.025c-0.262-19.593-16.206-35.376-35.837-35.376-9.92 0-18.899 4.031-25.389 10.543l-0.001 0.001c-6.525 6.228-10.582 14.994-10.582 24.706 0 0.059 0 0.118 0 0.177v-0.009z" />
<glyph unicode="&#xe901;" glyph-name="calendar" d="M768 362.667h-85.333c-23.564 0-42.667-19.103-42.667-42.667v0-85.333c0-23.564 19.103-42.667 42.667-42.667v0h85.333c23.564 0 42.667 19.103 42.667 42.667v0 85.333c0 23.564-19.103 42.667-42.667 42.667v0zM768 362.667h-85.333c-23.564 0-42.667-19.103-42.667-42.667v0-85.333c0-23.564 19.103-42.667 42.667-42.667v0h85.333c23.564 0 42.667 19.103 42.667 42.667v0 85.333c0 23.564-19.103 42.667-42.667 42.667v0zM938.667 789.291h-192v83.2c0.005 0.244 0.007 0.531 0.007 0.819 0 21.726-15.466 39.84-35.989 43.934l-0.286 0.048c-1.924 0.307-4.143 0.483-6.403 0.483-23.564 0-42.667-19.103-42.667-42.667 0-0.17 0.001-0.34 0.003-0.509v0.026-85.333h-298.667v83.2c0.005 0.244 0.007 0.531 0.007 0.819 0 21.726-15.466 39.84-35.989 43.934l-0.286 0.048c-1.924 0.307-4.143 0.483-6.403 0.483-23.564 0-42.667-19.103-42.667-42.667 0-0.17 0.001-0.34 0.003-0.509v0.026-85.333h-192c-23.564 0-42.667-19.103-42.667-42.667v0-682.667c0-23.564 19.103-42.667 42.667-42.667v0h853.333c23.564 0 42.667 19.103 42.667 42.667v0 682.667c0 23.564-19.103 42.667-42.667 42.667v0zM896 106.624h-768v426.667h768zM896 618.624h-768v85.333h768zM768 362.667c47.128 0 85.333-38.205 85.333-85.333s-38.205-85.333-85.333-85.333c-47.128 0-85.333 38.205-85.333 85.333s38.205 85.333 85.333 85.333z" />
<glyph unicode="&#xe902;" glyph-name="car" d="M879.403 528.768l-57.643 144.128c-31.080 76.905-105.13 130.177-191.622 130.177-0.238 0-0.476 0-0.714-0.001h-234.843c-0.201 0.001-0.439 0.001-0.677 0.001-86.492 0-160.542-53.272-191.127-128.795l-0.495-1.382-57.643-144.128c-45.004-17.303-76.38-60.145-76.459-110.326v-88.97c0.096-29.815 11.293-56.996 29.671-77.643l-0.103 0.118v-100.011c0.097-32.61 26.555-59.008 59.178-59.008 0 0 0 0 0 0h59.179c32.683 0 59.179 26.495 59.179 59.179v0 59.179h473.6v-59.179c0-32.683 26.495-59.179 59.179-59.179v0h59.179c32.683 0 59.179 26.495 59.179 59.179v0 100.011c18.119 20.525 29.192 47.643 29.227 77.347v88.754c0 0.034 0 0.074 0 0.114 0 50.182-31.298 93.054-75.439 110.161l-0.806 0.275zM312.149 628.907c13.454 32.983 45.278 55.806 82.432 55.808h234.667c37.154-0.002 68.978-22.825 82.218-55.215l0.214-0.593 36.864-92.16h-473.259l36.864 92.16zM216.107 330.027c-1.040-0.069-2.255-0.109-3.479-0.109-30.822 0-55.808 24.986-55.808 55.808 0 1.224 0.039 2.439 0.117 3.643l-0.008-0.164c-0.063 0.989-0.098 2.144-0.098 3.308 0 30.822 24.986 55.808 55.808 55.808 1.22 0 2.432-0.039 3.632-0.116l-0.164 0.008c44.782-9.377 79.455-44.079 88.66-88.135l0.129-0.74c0-35.2-53.248-29.312-88.789-29.312zM807.893 330.027c-35.499 0-88.747-5.888-88.747 29.483 9.465 44.625 44.080 79.154 88.006 88.361l0.741 0.13c1.033 0.068 2.24 0.107 3.456 0.107 30.822 0 55.808-24.986 55.808-55.808 0-1.088-0.031-2.169-0.093-3.242l0.007 0.148c0.063-0.989 0.098-2.144 0.098-3.308 0-30.822-24.986-55.808-55.808-55.808-1.22 0-2.432 0.039-3.632 0.116l0.164-0.008z" />
<glyph unicode="&#xe903;" glyph-name="cash" d="M229.268 75.803c-0.093 0-0.202 0-0.312 0-63.898 0-124.756 13.018-180.066 36.547l3.011-1.138c-30.801 13.611-51.906 43.893-51.906 79.105 0 0.345 0.002 0.69 0.006 1.035v-0.052 453.578c0 0.084 0 0.183 0 0.283 0 47.297 38.342 85.639 85.639 85.639 0.531 0 1.060-0.005 1.589-0.014l-0.079 0.001c9.241-0.131 18.11-1.5 26.519-3.948l-0.704 0.176c35.416-11.389 76.16-17.954 118.437-17.954 0.823 0 1.645 0.002 2.467 0.007l-0.126-0.001c92.461 4.333 179.599 19.887 262.39 45.363l-7.468-1.978c82.678 25.448 178.203 41.936 276.97 45.798l2.151 0.067c0.064 0 0.14 0 0.215 0 63.955 0 124.865-13.038 180.217-36.602l-3.011 1.139 1.024-0.431c30.216-13.848 50.827-43.831 50.827-78.628 0-0.305-0.002-0.609-0.005-0.913v0.046-453.74c0.003-0.278 0.005-0.607 0.005-0.936 0-47.118-38.197-85.315-85.315-85.315-0.646 0-1.291 0.007-1.933 0.021l0.096-0.002c-9.469 0.046-18.564 1.581-27.084 4.381l0.622-0.177c-35.055 11.255-75.381 17.742-117.222 17.742-1.004 0-2.007-0.004-3.009-0.011l0.154 0.001c-92.443-4.338-179.562-19.892-262.336-45.363l7.468 1.978c-82.593-24.977-178.12-41.38-276.8-45.62l-2.428-0.083zM80.842 315.203h28.51c70.882-0.371 128.509-56.604 131.119-126.899l0.007-0.239 1.24-31.636c89.951 5.402 174.115 20.788 254.379 45.139l-7.757-2.023c81.081 25.048 174.842 41.507 271.77 45.781l2.392 0.084 7.976 34.924c12.627 53.759 56.754 94.398 111.425 101.68l0.676 0.074 33.361 4.204v166.75l-33.415 4.258c-64.088 8.226-113.369 61.579-115.169 126.795l-0.004 0.181-1.024 32.714c-93.502-4.099-181.767-19.67-265.606-45.364l7.504 1.979c-77.297-23.633-167.054-39.957-259.698-45.596l-3.309-0.161-6.899-34.708c-12.5-60.958-65.613-106.189-129.326-106.388h-28.371zM498.526 258.991l-3.934 0.431c-86.237 14.36-151.167 88.416-151.167 177.637s64.93 163.277 150.116 177.492l1.052 0.145 3.988 0.377 4.042-0.377c86.237-14.36 151.167-88.416 151.167-177.637s-64.93-163.277-150.116-177.492l-1.052-0.145zM498.526 533.854c-42.406-6.595-74.478-42.849-74.478-86.594 0-2.395 0.096-4.768 0.285-7.115l-0.020 0.309 0.269-3.288-0.269-3.341c-1.267-5.203-1.994-11.176-1.994-17.319 0-42.088 34.119-76.207 76.207-76.207s76.207 34.119 76.207 76.207c0 6.143-0.727 12.116-2.099 17.838l0.105-0.519-0.269 3.341 0.269 3.288c0.163 2.006 0.257 4.342 0.257 6.7 0 43.742-32.068 79.994-73.977 86.529l-0.493 0.063z" />
<glyph unicode="&#xe904;" glyph-name="chevronleft" d="M449.109 432.427l240.213 240.213c8.922 7.925 14.516 19.427 14.516 32.236 0 14.82-7.489 27.892-18.889 35.636l-0.15 0.096c-7.729 5.655-17.424 9.048-27.911 9.048-12.956 0-24.702-5.179-33.281-13.579l0.008 0.008-269.696-271.957c-8.586-7.896-13.947-19.183-13.947-31.723s5.361-23.827 13.916-31.695l0.031-0.028 269.696-271.957c8.571-8.392 20.317-13.571 33.273-13.571 10.487 0 20.182 3.393 28.046 9.142l-0.134-0.094c11.55 7.841 19.039 20.912 19.039 35.732 0 12.809-5.594 24.311-14.472 32.197l-0.044 0.038z" />
<glyph unicode="&#xe905;" glyph-name="chevronright" d="M574.891 463.573l-240.213-240.213c-8.922-7.925-14.516-19.427-14.516-32.236 0-14.82 7.489-27.892 18.889-35.636l0.15-0.096c7.729-5.655 17.424-9.048 27.911-9.048 12.956 0 24.702 5.179 33.281 13.579l-0.008-0.008 269.696 271.957c8.586 7.896 13.947 19.183 13.947 31.723s-5.361 23.827-13.916 31.695l-0.031 0.028-269.696 271.957c-8.571 8.392-20.317 13.571-33.273 13.571-10.487 0-20.182-3.393-28.046-9.142l0.134 0.094c-11.55-7.841-19.039-20.912-19.039-35.732 0-12.809 5.594-24.311 14.472-32.197l0.044-0.038z" />
<glyph unicode="&#xe906;" glyph-name="chevronup" d="M496.427 510.891l240.213-240.213c7.925-8.922 19.427-14.516 32.236-14.516 14.82 0 27.892 7.489 35.636 18.889l0.096 0.15c5.655 7.729 9.048 17.424 9.048 27.911 0 12.956-5.179 24.702-13.579 33.281l0.008-0.008-271.957 269.696c-7.896 8.586-19.183 13.947-31.723 13.947s-23.827-5.361-31.695-13.916l-0.028-0.031-271.957-269.696c-8.392-8.571-13.571-20.317-13.571-33.273 0-10.487 3.393-20.182 9.142-28.046l-0.094 0.134c7.841-11.55 20.912-19.039 35.732-19.039 12.809 0 24.311 5.594 32.197 14.472l0.038 0.044z" />
<glyph unicode="&#xe907;" glyph-name="coffestroke" d="M788.608 122.709h-594.944v93.013h594.944zM214.997 144.043h552.277v50.347h-552.277zM562.944 266.197h-215.253c-0.14 0-0.306-0.001-0.472-0.001-42.408 0-80.785 17.258-108.492 45.135l-0.007 0.008c-27.833 27.692-45.057 66.024-45.057 108.379 0 0.193 0 0.386 0.001 0.579v-0.030 369.067h584.533c45.285-0.194 81.92-36.949 81.92-82.261 0-0.045 0-0.091 0-0.136v0.007-107.477c0-45.496-36.857-82.383-82.342-82.432h-61.061v-96.768c0-0.125 0.001-0.272 0.001-0.419 0-42.488-17.309-80.934-45.26-108.67l-0.010-0.009c-27.678-27.781-65.969-44.971-108.276-44.971-0.079 0-0.159 0-0.238 0h0.012zM214.997 768v-347.733c0-0.112-0.001-0.244-0.001-0.377 0-36.529 14.841-69.591 38.823-93.486l0.004-0.004c23.87-24.010 56.922-38.87 93.444-38.87 0.149 0 0.297 0 0.446 0.001h215.23c0.163-0.001 0.357-0.001 0.55-0.001 36.459 0 69.459 14.809 93.313 38.739l0.003 0.003c24.061 23.885 38.955 56.976 38.955 93.546 0 0.113 0 0.225 0 0.338v-0.017 118.315h82.389c33.687 0.024 60.989 27.326 61.013 61.011v107.607c0.001 0.123 0.001 0.268 0.001 0.413 0 16.652-6.751 31.727-17.665 42.637v0c-10.933 11.091-26.121 17.963-42.915 17.963-0.018 0-0.036 0-0.053 0h0.003l-0.427 10.667v-10.667zM788.608 588.8h-93.013v128.853h93.056zM716.928 610.133h50.347v86.187h-50.389z" />
<glyph unicode="&#xe908;" glyph-name="dropdown" d="M527.573 385.109l-240.213 240.213c-7.925 8.922-19.427 14.516-32.236 14.516-14.82 0-27.892-7.489-35.636-18.889l-0.096-0.15c-5.655-7.729-9.048-17.424-9.048-27.911 0-12.956 5.179-24.702 13.579-33.281l-0.008 0.008 271.957-269.696c7.896-8.586 19.183-13.947 31.723-13.947s23.827 5.361 31.695 13.916l0.028 0.031 271.957 269.696c8.392 8.571 13.571 20.317 13.571 33.273 0 10.487-3.393 20.182-9.142 28.046l0.094-0.134c-7.841 11.55-20.912 19.039-35.732 19.039-12.809 0-24.311-5.594-32.197-14.472l-0.038-0.044z" />
<glyph unicode="&#xe909;" glyph-name="eventsoutline" d="M298.667 533.333c0-23.564-19.103-42.667-42.667-42.667s-42.667 19.103-42.667 42.667c0 23.564 19.103 42.667 42.667 42.667s42.667-19.103 42.667-42.667zM426.667 341.333h341.333c23.564 0 42.667 19.103 42.667 42.667s-19.103 42.667-42.667 42.667v0h-341.333c-23.564 0-42.667-19.103-42.667-42.667s19.103-42.667 42.667-42.667v0zM426.667 490.667h341.333c23.564 0 42.667 19.103 42.667 42.667s-19.103 42.667-42.667 42.667v0h-341.333c-23.564 0-42.667-19.103-42.667-42.667s19.103-42.667 42.667-42.667v0zM426.667 192h341.333c23.564 0 42.667 19.103 42.667 42.667s-19.103 42.667-42.667 42.667v0h-341.333c-23.564 0-42.667-19.103-42.667-42.667s19.103-42.667 42.667-42.667v0zM298.667 362.667c0-23.564-19.103-42.667-42.667-42.667s-42.667 19.103-42.667 42.667c0 23.564 19.103 42.667 42.667 42.667s42.667-19.103 42.667-42.667zM298.667 234.667c0-23.564-19.103-42.667-42.667-42.667s-42.667 19.103-42.667 42.667c0 23.564 19.103 42.667 42.667 42.667s42.667-19.103 42.667-42.667zM938.667 874.667h-853.333c-23.564 0-42.667-19.103-42.667-42.667v0-768c0-23.564 19.103-42.667 42.667-42.667v0h853.333c23.564 0 42.667 19.103 42.667 42.667v0 768c0 23.564-19.103 42.667-42.667 42.667v0zM896 106.667h-768v554.667h768zM896 746.667h-768v42.667h768z" />
<glyph unicode="&#xe90a;" glyph-name="facebook" horiz-adv-x="981" d="M910.549 831.701v-753.024c-0.123-1.702-0.903-3.201-2.085-4.261l-0.006-0.005c-1.097-20.445-17.401-36.748-37.745-37.841l-0.101-0.004h-220.885v323.968h103.083c6.315 0 6.315 0 8.533 6.315l6.315 52.565c2.057 24.252 5.077 45.838 9.165 67.043l-0.632-3.939c4.267 21.035 0 6.315-4.267 6.315h-122.197v82.005c0 6.315 2.091 14.72 2.091 21.035 1.929 17.762 15.902 31.735 33.496 33.649l0.168 0.015 27.349 4.267h63.104c4.267 0 4.267 0 4.267 4.267v107.179c0 2.091 0 4.267-4.267 4.267h-96.597c-1.243 0.037-2.706 0.058-4.173 0.058-23.717 0-46.16-5.452-66.144-15.172l0.899 0.394c-32.749-11.198-58.851-34.524-73.442-64.489l-0.329-0.748c-10.66-20.367-16.915-44.489-16.915-70.073 0-1.991 0.038-3.973 0.113-5.945l-0.009 0.284c-2.091-31.531 0-65.195 0-98.859h-107.264c-4.267 0-4.267-2.091-4.267-4.267v-119.893c0-4.267 0-4.267 4.267-4.267h107.264v-323.925c-1.188-1.065-1.968-2.565-2.089-4.246l-0.001-0.020h-408.064c-20.445 1.097-36.748 17.401-37.841 37.745l-0.004 0.101c-2.091 0-2.091 2.091-2.091 4.267v755.243c0 2.091 0 4.267 2.091 4.267 1.119 20.427 17.414 36.707 37.745 37.798l0.101 0.004h761.387c20.445-1.097 36.748-17.401 37.841-37.745l0.004-0.101z" />
<glyph unicode="&#xe90b;" glyph-name="facebook-outline" d="M561.408 85.717h-131.755c-18.192 0-32.939 14.747-32.939 32.939v0 230.4h-65.835c-18.192 0-32.939 14.747-32.939 32.939v0 131.883c0 18.192 14.747 32.939 32.939 32.939v0h65.877v65.877c0.097 109.11 88.522 197.535 197.623 197.632h98.74c18.192 0 32.939-14.747 32.939-32.939v0-131.755c0-18.192-14.747-32.939-32.939-32.939v0h-98.816v-65.877h98.816c18.191 0 32.938-14.747 32.938-32.939 0-2.833-0.358-5.583-1.031-8.207l0.050 0.228-32.939-131.712c-3.697-14.449-16.599-24.96-31.957-24.96h-65.877v-230.4c0-0.051 0-0.111 0-0.171 0-18.177-14.723-32.915-32.894-32.939h-0.002zM462.592 151.595h65.877v230.4c0 18.192 14.747 32.939 32.939 32.939v0h73.088l16.469 65.877h-89.6c-18.192 0-32.939 14.747-32.939 32.939v0 98.816c0.024 36.373 29.504 65.853 65.875 65.877h65.88v65.877h-65.877c-72.737-0.073-131.682-59.018-131.755-131.748v-98.823c0-18.192-14.747-32.939-32.939-32.939v0h-65.877v-65.877h65.877c18.192 0 32.939-14.747 32.939-32.939v0z" />
<glyph unicode="&#xe90c;" glyph-name="failure" d="M512 832c212.077 0 384-171.923 384-384s-171.923-384-384-384c-212.077 0-384 171.923-384 384v0c0 212.077 171.923 384 384 384v0zM512 917.333c-257.104-1.218-465.056-209.921-465.056-467.195 0-258.027 209.173-467.2 467.2-467.2s467.2 209.173 467.2 467.2c0 129.015-52.294 245.816-136.843 330.363v0c-84.546 84.545-201.345 136.837-330.357 136.837-0.754 0-1.507-0.002-2.26-0.005h0.116zM571.691 448l119.467 117.333c7.901 8.071 12.777 19.131 12.777 31.33 0 9.87-3.192 18.994-8.599 26.397l0.088-0.127c-7.382 10.88-19.691 17.934-33.649 17.934-12.060 0-22.89-5.267-30.315-13.626l-0.036-0.042-119.467-119.467-119.467 119.467c-7.461 8.401-18.291 13.668-30.351 13.668-13.957 0-26.267-7.055-33.558-17.793l-0.091-0.142c-5.319-7.276-8.51-16.4-8.51-26.27 0-12.199 4.876-23.259 12.785-31.338l-0.008 0.008 119.467-117.333-119.467-117.333c-7.901-8.071-12.777-19.131-12.777-31.33 0-9.87 3.192-18.994 8.599-26.397l-0.088 0.127c7.382-10.88 19.691-17.934 33.649-17.934 12.060 0 22.89 5.267 30.315 13.626l0.036 0.042 119.467 119.467 119.467-119.467c7.461-8.401 18.291-13.668 30.351-13.668 13.957 0 26.267 7.055 33.558 17.793l0.091 0.142c5.319 7.276 8.51 16.4 8.51 26.27 0 12.199-4.876 23.259-12.785 31.338l0.008-0.008z" />
<glyph unicode="&#xe90d;" glyph-name="filter" d="M182.613 813.184v-100.267c-46.23-17.887-78.581-61.639-79.401-113.052l-0.001-0.1c0.595-51.005 33.165-94.25 78.573-110.671l0.829-0.262v-382.037c-0.031-0.6-0.048-1.302-0.048-2.009 0-22.334 17.564-40.566 39.633-41.636l0.096-0.004c22.165 1.074 39.728 19.305 39.728 41.639 0 0.706-0.018 1.409-0.052 2.107l0.004-0.098v381.824c46.238 16.683 78.808 59.929 79.402 110.862l0.001 0.072c-0.73 51.598-33.108 95.451-78.563 113.079l-0.84 0.286v100.267c0.031 0.6 0.048 1.302 0.048 2.009 0 22.334-17.564 40.566-39.633 41.636l-0.096 0.004c-22.165-1.074-39.728-19.305-39.728-41.639 0-0.706 0.018-1.409 0.052-2.107l-0.004 0.098zM262.016 599.851c0-0.013 0-0.029 0-0.045 0-21.962-17.804-39.765-39.765-39.765s-39.765 17.804-39.765 39.765c0 21.962 17.804 39.765 39.765 39.765 11.002 0 20.96-4.468 28.159-11.688l0.001-0.001c7.169-7.177 11.603-17.086 11.605-28.031v-0.001zM460.459 813.184v-422.699c-46.23-17.887-78.581-61.639-79.401-113.052l-0.001-0.1c0.595-51.005 33.165-94.25 78.573-110.671l0.829-0.262v-59.733c0-21.926 17.775-39.701 39.701-39.701s39.701 17.775 39.701 39.701v59.733c46.238 16.683 78.808 59.929 79.402 110.862l0.001 0.072c-0.84 51.495-33.186 95.227-78.563 112.823l-0.84 0.286v422.741c-0.723 21.371-18.221 38.421-39.701 38.421s-38.979-17.050-39.7-38.355l-0.002-0.066zM539.861 277.333c0-21.915-17.765-39.68-39.68-39.68s-39.68 17.765-39.68 39.68c0 21.915 17.765 39.68 39.68 39.68v0c21.915 0 39.68-17.765 39.68-39.68v0zM738.347 813.184v-83.413c-46.217-17.882-78.563-61.614-79.401-113.007l-0.001-0.103c0.595-51.005 33.165-94.25 78.573-110.671l0.829-0.262v-399.104c0.723-21.371 18.221-38.421 39.701-38.421s38.979 17.050 39.7 38.355l0.002 0.066v398.891c46.238 16.683 78.808 59.929 79.402 110.862l0.001 0.072c-0.84 51.495-33.186 95.227-78.563 112.823l-0.84 0.286v83.627c0.014 0.388 0.021 0.844 0.021 1.302 0 21.938-17.784 39.723-39.723 39.723s-39.723-17.784-39.723-39.723c0-0.458 0.008-0.914 0.023-1.368l-0.002 0.066zM817.749 616.661c0-21.915-17.765-39.68-39.68-39.68s-39.68 17.765-39.68 39.68c0 21.915 17.765 39.68 39.68 39.68v0c21.915 0 39.68-17.765 39.68-39.68v0z" />
<glyph unicode="&#xe90e;" glyph-name="fixeddateoutline" d="M691.072 456.533c-7.434 8.083-18.061 13.13-29.867 13.13s-22.432-5.047-29.84-13.101l-0.026-0.029-183.467-183.467-76.8 76.8c-7.819 8.443-18.962 13.71-31.336 13.71-14.307 0-26.969-7.042-34.71-17.848l-0.088-0.129c-3.931-6.717-6.253-14.79-6.253-23.405 0-13.469 5.674-25.613 14.762-34.173l0.024-0.022 104.533-104.533c7.434-8.083 18.061-13.13 29.867-13.13s22.432 5.047 29.84 13.101l0.026 0.029 213.333 213.333c8.083 7.434 13.13 18.061 13.13 29.867s-5.047 22.432-13.101 29.84l-0.029 0.026zM691.072 456.533c-7.434 8.083-18.061 13.13-29.867 13.13s-22.432-5.047-29.84-13.101l-0.026-0.029-183.467-183.467-76.8 76.8c-7.819 8.443-18.962 13.71-31.336 13.71-14.307 0-26.969-7.042-34.71-17.848l-0.088-0.129c-3.931-6.717-6.253-14.79-6.253-23.405 0-13.469 5.674-25.613 14.762-34.173l0.024-0.022 104.533-104.533c7.434-8.083 18.061-13.13 29.867-13.13s22.432 5.047 29.84 13.101l0.026 0.029 213.333 213.333c8.083 7.434 13.13 18.061 13.13 29.867s-5.047 22.432-13.101 29.84l-0.029 0.026zM938.667 789.291h-192v83.2c0.005 0.244 0.007 0.531 0.007 0.819 0 21.726-15.466 39.84-35.989 43.934l-0.286 0.048c-1.924 0.307-4.143 0.483-6.403 0.483-23.564 0-42.667-19.103-42.667-42.667 0-0.17 0.001-0.34 0.003-0.509v0.026-85.333h-298.667v83.2c0.005 0.244 0.007 0.531 0.007 0.819 0 21.726-15.466 39.84-35.989 43.934l-0.286 0.048c-1.924 0.307-4.143 0.483-6.403 0.483-23.564 0-42.667-19.103-42.667-42.667 0-0.17 0.001-0.34 0.003-0.509v0.026-85.333h-192c-23.564 0-42.667-19.103-42.667-42.667v0-682.667c0-23.564 19.103-42.667 42.667-42.667v0h853.333c23.564 0 42.667 19.103 42.667 42.667v0 682.667c0 23.564-19.103 42.667-42.667 42.667v0zM896 106.624h-768v426.667h768zM896 618.624h-768v85.333h768z" />
<glyph unicode="&#xe90f;" glyph-name="guests" d="M341.504 437.589c99.912 0 180.907 80.995 180.907 180.907s-80.995 180.907-180.907 180.907c-99.912 0-180.907-80.995-180.907-180.907v0c0-99.912 80.995-180.907 180.907-180.907v0zM341.504 719.189c0.013 0 0.028 0 0.043 0 55.517 0 100.523-45.006 100.523-100.523s-45.006-100.523-100.523-100.523c-55.472 0-100.45 44.933-100.523 100.388v0.007c0 0.038 0 0.083 0 0.128 0 55.502 44.981 100.498 100.478 100.523h0.002zM743.637 437.419c77.762 0 140.8 63.038 140.8 140.8s-63.038 140.8-140.8 140.8c-77.762 0-140.8-63.038-140.8-140.8v0c0-77.762 63.038-140.8 140.8-140.8v0zM743.637 638.464c33.259-0.049 60.203-27.022 60.203-60.288 0-33.296-26.992-60.288-60.288-60.288s-60.288 26.992-60.288 60.288c0 0.015 0 0.030 0 0.045v-0.002c-0.025 0.635-0.039 1.381-0.039 2.13 0 32.189 26.094 58.283 58.283 58.283 0.749 0 1.495-0.014 2.237-0.042l-0.107 0.003zM964.693 329.045l-18.091 12.075c-57.936 35.384-128.036 56.334-203.029 56.334s-145.093-20.951-204.766-57.318l1.737 0.984-16.085-12.075c-48.422 17.639-104.318 27.938-162.59 28.16h-0.098c-0.97 0.007-2.118 0.011-3.266 0.011-96.888 0-186.934-29.292-261.766-79.503l1.693 1.070-18.261-12.075v-150.997c0-22.197 17.995-40.192 40.192-40.192h482.475c22.197 0 40.192 17.995 40.192 40.192v0 40.192h281.6c22.197 0 40.192 17.995 40.192 40.192v0zM562.645 156.16h-402.048v66.219c56.977 34.16 125.713 54.362 199.166 54.362 0.706 0 1.411-0.002 2.115-0.006h-0.108c0.508 0.002 1.109 0.004 1.711 0.004 73.453 0 142.187-20.201 200.951-55.352l-1.787 0.99zM884.267 236.587h-241.237v30.165l-18.091 12.075-12.075 8.021c38.529 18.672 83.802 29.585 131.623 29.585 51.017 0 99.134-12.421 141.49-34.403l-1.71 0.807z" />
<glyph unicode="&#xe910;" glyph-name="hide" d="M985.429 476.459c-45.397 56.235-214.144 240.085-460.715 240.085-0.427 0.001-0.932 0.002-1.437 0.002-28.525 0-56.498-2.359-83.736-6.894l2.954 0.406 77.867-80.043h4.267c190.336 0 330.965-134.101 382.891-194.688-30.199-33.948-62.748-64.441-97.866-91.789l-1.633-1.224 60.587-60.587c44.059 33.128 82.43 70.117 115.877 111.27l0.944 1.199c9.15 11.101 14.699 25.468 14.699 41.131s-5.549 30.030-14.788 41.242l0.089-0.111zM641.408 379.093c8.076 16.114 12.804 35.111 12.804 55.212 0 0.36-0.002 0.719-0.005 1.078v-0.055c0 71.682-58.11 129.792-129.792 129.792v0c-0.304 0.003-0.663 0.004-1.023 0.004-20.101 0-39.098-4.728-55.939-13.133l0.727 0.328-252.843 253.013c-7.153 5.434-16.208 8.704-26.027 8.704-23.894 0-43.264-19.37-43.264-43.264 0-9.819 3.271-18.874 8.782-26.134l-0.078 0.107 101.675-103.851c-75.315-43.96-139.071-98.755-191.515-163.131l-0.997-1.263c-9.139-11.098-14.681-25.456-14.681-41.109s5.542-30.012 14.771-41.221l-0.089 0.112c45.44-56.235 214.144-240.085 460.8-240.085 0.457-0.002 0.999-0.002 1.54-0.002 65.628 0 128.289 12.707 185.655 35.794l-3.345-1.189 125.44-123.307c7.979-10.515 20.484-17.237 34.56-17.237 23.894 0 43.264 19.37 43.264 43.264 0 14.075-6.721 26.581-17.13 34.482l-0.107 0.078zM524.587 240.64c-190.336 0-330.965 134.101-382.891 194.688 50.311 57.176 109.765 104.845 176.34 141.083l3.372 1.68 86.528-86.528c-8.076-16.117-12.804-35.117-12.804-55.222 0-0.356 0.001-0.712 0.004-1.068v0.055c0-71.682 58.11-129.792 129.792-129.792v0c0.304-0.003 0.663-0.004 1.023-0.004 20.101 0 39.098 4.728 55.939 13.133l-0.727-0.328 60.587-60.587c-34.934-10.84-75.109-17.16-116.737-17.322h-0.085z" />
<glyph unicode="&#xe911;" glyph-name="hotel" d="M917.675 734.336c13.172 0 23.851 10.678 23.851 23.851v0 47.744c0 13.172-10.678 23.851-23.851 23.851h-811.307c-13.172 0-23.851-10.678-23.851-23.851v0-47.744c0-13.172 10.678-23.851 23.851-23.851v0h23.851v-572.672h-23.851c-13.172 0-23.851-10.678-23.851-23.851v0-47.701c0-13.172 10.678-23.851 23.851-23.851v0h357.931v119.253c0.048 13.153 10.698 23.802 23.846 23.851h47.706c13.153-0.048 23.802-10.698 23.851-23.846v-119.472h357.931c13.172 0 23.851 10.678 23.851 23.851v47.915c0 13.172-10.678 23.851-23.851 23.851v0h-23.851v572.672zM464.299 667.648c0.776 10.261 8.992 18.375 19.229 18.984l0.056 0.003h57.259c10.23-0.722 18.35-8.842 19.068-19.007l0.004-0.065v-57.301c-0.722-10.23-8.842-18.35-19.007-19.068l-0.065-0.004h-57.259c-10.23 0.722-18.35 8.842-19.068 19.007l-0.004 0.065v57.387zM464.299 524.501c0.796 10.243 9.006 18.334 19.229 18.941l0.056 0.003h57.259c10.23-0.722 18.35-8.842 19.068-19.007l0.004-0.065v-57.259c-0.722-10.23-8.842-18.35-19.007-19.068l-0.065-0.004h-57.259c-10.32 0.617-18.551 8.774-19.282 19.006l-0.004 0.066zM273.408 667.648c0.722 10.23 8.842 18.35 19.007 19.068l0.065 0.004h57.301c10.23-0.722 18.35-8.842 19.068-19.007l0.004-0.065v-57.387c-0.722-10.23-8.842-18.35-19.007-19.068l-0.065-0.004h-57.301c-10.23 0.722-18.35 8.842-19.068 19.007l-0.004 0.065zM349.781 448.128h-57.301c-10.203 0.717-18.308 8.793-19.068 18.918l-0.004 0.068v57.259c0.722 10.23 8.842 18.35 19.007 19.068l0.065 0.004h57.301c10.23-0.722 18.35-8.842 19.068-19.007l0.004-0.065v-57.259c-0.701-10.248-8.829-18.39-19.007-19.111l-0.065-0.004zM368.853 257.237c0 79.070 64.098 143.168 143.168 143.168s143.168-64.098 143.168-143.168v0zM750.635 467.115c-0.722-10.23-8.842-18.35-19.007-19.068l-0.065-0.004h-57.301c-10.23 0.722-18.35 8.842-19.068 19.007l-0.004 0.065v57.259c0.722 10.23 8.842 18.35 19.007 19.068l0.065 0.004h57.259c10.23-0.722 18.35-8.842 19.068-19.007l0.004-0.065zM750.635 610.261c-0.722-10.23-8.842-18.35-19.007-19.068l-0.065-0.004h-57.301c-10.23 0.722-18.35 8.842-19.068 19.007l-0.004 0.065v57.387c0.722 10.23 8.842 18.35 19.007 19.068l0.065 0.004h57.259c10.23-0.722 18.35-8.842 19.068-19.007l0.004-0.065z" />
<glyph unicode="&#xe912;" glyph-name="instagram" d="M676.693 85.717h-329.344c-109.11 0.097-197.535 88.522-197.632 197.623v329.353c0.097 109.11 88.522 197.535 197.623 197.632h329.353c109.1-0.121 197.511-88.532 197.632-197.62v-329.356c-0.121-109.1-88.532-197.511-197.62-197.632h-0.012zM347.349 744.405c-72.737-0.073-131.682-59.018-131.755-131.748v-329.351c0.073-72.737 59.018-131.682 131.748-131.755h329.351c72.737 0.073 131.682 59.018 131.755 131.748v329.351c-0.073 72.737-59.018 131.682-131.748 131.755h-0.007zM513.365 284.715c-90.905 0.070-164.571 73.779-164.571 164.693 0 82.408 60.525 150.679 139.548 162.786l0.917 0.116c7.255 1.132 15.621 1.779 24.139 1.779 82.431 0 150.718-60.56 162.796-139.615l0.115-0.916c1.122-7.226 1.763-15.56 1.763-24.044 0-82.444-60.516-150.754-139.551-162.933l-0.921-0.117c-7.27-1.113-15.656-1.749-24.192-1.749-0.015 0-0.030 0-0.045 0h0.002zM513.365 548.224c-5.127-0.010-10.154-0.397-15.067-1.136l0.56 0.069c-47.977-7.321-84.306-48.29-84.306-97.745 0-54.575 44.241-98.816 98.816-98.816s98.816 44.241 98.816 98.816c0 5.117-0.389 10.144-1.139 15.052l0.069-0.549c-6.351 43.177-40.066 76.892-82.708 83.178l-0.534 0.065c-4.307 0.704-9.311 1.136-14.404 1.194l-0.060 0.001zM693.504 596.181c-0.051 0-0.111 0-0.171 0-18.192 0-32.939 14.747-32.939 32.939 0 18.132 14.65 32.842 32.759 32.939h0.35c18.192 0 32.939-14.747 32.939-32.939s-14.747-32.939-32.939-32.939v0z" />
<glyph unicode="&#xe913;" glyph-name="laundrystroke" d="M689.323 122.709h-387.499c-0.114-0.001-0.248-0.001-0.382-0.001-20.723 0-39.472 8.452-52.988 22.097l-0.006 0.006c-13.472 13.467-21.804 32.073-21.804 52.626 0 0.174 0.001 0.347 0.002 0.52v-0.027 516.267c0 0 0 0 0 0 0 41.445 33.537 75.057 74.954 75.178l388.151-0.341c0.030 0 0.066 0 0.102 0 20.608 0 39.248-8.421 52.669-22.009l0.007-0.007c13.418-13.406 21.719-31.933 21.719-52.399 0-0.163-0.001-0.327-0.002-0.49v0.025-516.267c0-0.075 0-0.163 0-0.252 0-20.793-8.485-39.604-22.181-53.16l-0.006-0.006c-13.449-13.445-32.027-21.76-52.547-21.76-0.067 0-0.133 0-0.2 0h0.010zM301.653 768c-29.574-0.024-53.554-23.943-53.675-53.492v-516.62c-0.001-0.099-0.001-0.216-0.001-0.333 0-14.71 5.95-28.030 15.576-37.685l-0.001 0.001c9.664-9.768 23.069-15.82 37.886-15.829h387.799c0.054 0 0.117 0 0.18 0 14.704 0 28.018 5.95 37.666 15.575l-0.001-0.001c9.774 9.645 15.829 23.038 15.829 37.845v0 516.693c0.001 0.104 0.001 0.226 0.001 0.349 0 14.616-5.937 27.846-15.53 37.41l-0.001 0.001c-9.592 9.716-22.908 15.737-37.631 15.744h-0.001l-0.725 10.667v-10.667l-387.2 0.341zM487.083 187.221v0.299c-109.093 4.767-195.748 94.301-195.883 204.104v0.013c0.146 112.743 91.502 204.1 204.231 204.245h0.014c112.743-0.146 204.1-91.502 204.245-204.231v-0.014c-0.218-112.733-91.486-204.077-204.17-204.416h-0.032zM495.616 574.549c-100.971-0.121-182.791-81.941-182.912-182.9v-0.012c0.121-100.971 81.941-182.791 182.9-182.912h7.692c97.591 4.52 175.028 84.64 175.232 182.892v0.020c-0.121 101.045-82.063 182.912-183.125 182.912v0zM497.323 249.6h-2.859c-38.619 0.648-73.307 16.956-98.086 42.83l-0.048 0.050-7.168 7.552 197.419 197.504 10.069-9.899c24.782-25.294 40.076-59.966 40.076-98.21 0-0.648-0.004-1.295-0.013-1.942l0.001 0.098c-0.518-38.871-16.756-73.851-42.631-98.952l-0.035-0.034c-24.951-24.128-58.986-38.998-96.494-38.998-0.081 0-0.163 0-0.244 0h0.013zM419.413 300.075c20.104-17.655 46.488-28.594 75.416-29.097l0.104-0.001c0.985-0.030 2.143-0.047 3.305-0.047 31.609 0 60.266 12.637 81.195 33.133l-0.020-0.020c22.383 21.618 36.281 51.897 36.281 85.421 0 29.84-11.011 57.108-29.192 77.963l0.121-0.142zM430.891 638.933c-23.696 0.024-42.898 19.227-42.923 42.92v0.002c0.173 19.799 13.672 36.398 31.955 41.276l0.301 0.068v1.408h10.667c23.696-0.024 42.898-19.227 42.923-42.92v-0.002c-0.169-23.586-19.316-42.643-42.92-42.667h-0.002zM433.536 703.275h-2.603c-11.815-0.069-21.394-9.544-21.632-21.311v-0.022c0.145-11.813 9.754-21.333 21.588-21.333 0.001 0 0.001 0 0.002 0v0c11.914 0.024 21.565 9.676 21.589 21.587v0.002c-0.068 10.945-8.254 19.956-18.836 21.322l-0.108 0.011zM334.080 638.933c-23.696 0.024-42.898 19.227-42.923 42.92v0.002c0.208 17.93 11.28 33.222 26.932 39.618l0.289 0.105-1.493 3.029h17.067c23.686-0.048 42.874-19.237 42.923-42.918v-0.005c-0.168-23.496-19.17-42.499-42.651-42.667h-0.016zM336.725 703.275h-2.56c-11.897-0.071-21.531-9.66-21.675-21.533v-0.014c0 0 0-0.001 0-0.002 0-11.782 9.551-21.333 21.333-21.333 0.090 0 0.18 0.001 0.27 0.002h-0.014c11.914 0.024 21.565 9.676 21.589 21.587v0.002c-0.068 10.945-8.254 19.956-18.836 21.322l-0.108 0.011z" />
<glyph unicode="&#xe914;" glyph-name="laundry-fill" d="M402.859 244.907c29.52-29.52 70.303-47.779 115.349-47.779 90.093 0 163.129 73.035 163.129 163.129 0 45.047-18.259 85.829-47.779 115.349v0l-230.699-230.699zM762.709 848.896l-489.088 0.427c-0.127 0.001-0.277 0.001-0.428 0.001-44.772 0-81.067-36.295-81.067-81.067 0-0.15 0-0.301 0.001-0.451v0.023-652.117c0-0.076 0-0.167 0-0.257 0-44.772 36.295-81.067 81.067-81.067 0.15 0 0.3 0 0.45 0.001h489.065c0.127-0.001 0.277-0.001 0.428-0.001 44.772 0 81.067 36.295 81.067 81.067 0 0.15 0 0.301-0.001 0.451v-0.023 651.947c0 0 0 0.001 0 0.001 0 44.772-36.295 81.067-81.067 81.067-0.15 0-0.3 0-0.45-0.001h0.023zM436.651 767.829c22.504 0 40.747-18.243 40.747-40.747s-18.243-40.747-40.747-40.747c-22.504 0-40.747 18.243-40.747 40.747v0c0 22.504 18.243 40.747 40.747 40.747v0zM314.368 767.829c22.504 0 40.747-18.243 40.747-40.747s-18.243-40.747-40.747-40.747c-22.504 0-40.747 18.243-40.747 40.747v0c0 22.504 18.243 40.747 40.747 40.747v0zM518.144 115.712c-135.046 0-244.523 109.477-244.523 244.523s109.477 244.523 244.523 244.523c135.046 0 244.523-109.477 244.523-244.523v0c0-135.046-109.477-244.523-244.523-244.523v0zM762.709 848.896l-489.088 0.427c-0.127 0.001-0.277 0.001-0.428 0.001-44.772 0-81.067-36.295-81.067-81.067 0-0.15 0-0.301 0.001-0.451v0.023-652.117c0-0.076 0-0.167 0-0.257 0-44.772 36.295-81.067 81.067-81.067 0.15 0 0.3 0 0.45 0.001h489.065c0.127-0.001 0.277-0.001 0.428-0.001 44.772 0 81.067 36.295 81.067 81.067 0 0.15 0 0.301-0.001 0.451v-0.023 651.947c0 0 0 0.001 0 0.001 0 44.772-36.295 81.067-81.067 81.067-0.15 0-0.3 0-0.45-0.001h0.023zM436.651 767.829c22.504 0 40.747-18.243 40.747-40.747s-18.243-40.747-40.747-40.747c-22.504 0-40.747 18.243-40.747 40.747v0c0 22.504 18.243 40.747 40.747 40.747v0zM314.368 767.829c22.504 0 40.747-18.243 40.747-40.747s-18.243-40.747-40.747-40.747c-22.504 0-40.747 18.243-40.747 40.747v0c0 22.504 18.243 40.747 40.747 40.747v0zM518.144 115.712c-135.046 0-244.523 109.477-244.523 244.523s109.477 244.523 244.523 244.523c135.046 0 244.523-109.477 244.523-244.523v0c0-135.046-109.477-244.523-244.523-244.523v0z" />
<glyph unicode="&#xe915;" glyph-name="leftarrow" d="M459.264 730.411l-250.923-252.928c-7.992-7.348-12.983-17.854-12.983-29.525s4.991-22.177 12.954-29.499l0.029-0.026 250.923-253.056c7.981-7.822 18.922-12.649 30.99-12.649 9.738 0 18.743 3.143 26.054 8.47l-0.126-0.088c10.776 7.293 17.765 19.473 17.765 33.285 0 11.915-5.201 22.616-13.458 29.954l-0.041 0.036-181.333 181.333h447.019c23.293 0 42.176 18.883 42.176 42.176s-18.883 42.176-42.176 42.176h-447.061l181.333 181.333c8.297 7.374 13.498 18.075 13.498 29.99 0 13.812-6.989 25.992-17.624 33.195l-0.141 0.090c-7.184 5.239-16.189 8.382-25.927 8.382-12.069 0-23.010-4.827-30.998-12.656l0.007 0.007z" />
<glyph unicode="&#xe916;" glyph-name="location" horiz-adv-x="1109" d="M554.667 915.925c-210.475 0-361.429-172.203-361.429-382.677s244.523-452.864 331.691-540.032c7.417-8.119 18.049-13.192 29.867-13.192s22.45 5.073 29.839 13.161l0.028 0.031c87.168 87.168 331.691 325.291 331.691 540.032s-151.381 382.677-361.685 382.677zM554.667 405.675c-82.192 0-148.821 66.63-148.821 148.821s66.63 148.821 148.821 148.821c82.192 0 148.821-66.63 148.821-148.821v0c0-82.192-66.63-148.821-148.821-148.821v0z" />
<glyph unicode="&#xe917;" glyph-name="locationoutline" d="M512 661.333c35.346 0 64-28.654 64-64s-28.654-64-64-64c-35.346 0-64 28.654-64 64v0c-0.024 0.647-0.038 1.408-0.038 2.171 0 34.168 27.699 61.867 61.867 61.867 0.764 0 1.524-0.014 2.281-0.041l-0.11 0.003zM512 746.667c-82.475 0-149.333-66.859-149.333-149.333s66.859-149.333 149.333-149.333c82.475 0 149.333 66.859 149.333 149.333v0c0 82.475-66.859 149.333-149.333 149.333v0zM512 832c157.867 0 277.333-128 277.333-298.667s-183.467-356.267-277.333-452.267c-93.867 96-277.333 292.267-277.333 452.267-0.116 3.054-0.182 6.64-0.182 10.241 0 155.499 122.963 282.278 276.959 288.408l0.557 0.018zM512 917.333c-211.2 0-362.667-172.8-362.667-384s245.333-454.4 332.8-541.867c7.434-8.083 18.061-13.13 29.867-13.13s22.432 5.047 29.84 13.101l0.026 0.029c87.467 87.467 332.8 326.4 332.8 541.867s-151.467 384-362.667 384z" />
<glyph unicode="&#xe918;" glyph-name="logout" d="M755.2 477.909l-147.2 149.333c-8.071 7.901-19.131 12.777-31.33 12.777-9.87 0-18.994-3.192-26.397-8.599l0.127 0.088c-10.88-7.382-17.934-19.691-17.934-33.649 0-12.060 5.267-22.89 13.626-30.315l0.042-0.036 76.8-76.8h-494.933c-23.564 0-42.667-19.103-42.667-42.667v0 0c0-23.564 19.103-42.667 42.667-42.667v0h494.933l-76.8-76.8c-8.401-7.461-13.668-18.291-13.668-30.351 0-13.957 7.055-26.267 17.793-33.558l0.142-0.091c7.276-5.319 16.4-8.51 26.27-8.51 12.199 0 23.259 4.876 31.338 12.785l-0.008-0.008 147.2 149.333c8.083 7.434 13.13 18.061 13.13 29.867s-5.047 22.432-13.101 29.84l-0.029 0.026zM938.667 704v-512c0-23.564-19.103-42.667-42.667-42.667s-42.667 19.103-42.667 42.667v0 512c0 23.564 19.103 42.667 42.667 42.667s42.667-19.103 42.667-42.667v0z" />
<glyph unicode="&#xe919;" glyph-name="mailoutline" d="M948.864 819.285h-873.643c-24.13 0-43.691-19.561-43.691-43.691v0-655.189c0.097-24.056 19.621-43.52 43.69-43.52 0 0 0 0 0 0h873.643c24.13 0 43.691 19.561 43.691 43.691v0 655.019c0 24.13-19.561 43.691-43.691 43.691v0zM905.131 164.096h-786.219v443.349l382.208-224.939c3.069-2.074 6.851-3.312 10.923-3.312s7.854 1.237 10.992 3.356l-0.070-0.044 382.208 231.509zM522.923 482.944c-3.069-2.074-6.851-3.312-10.923-3.312s-7.854 1.237-10.992 3.356l0.070-0.044-382.165 248.96h786.219z" />
<glyph unicode="&#xe91a;" glyph-name="marketstroke" d="M290.901 122.539c-35.806 0.075-65.979 24.109-75.342 56.918l-0.135 0.554-86.357 315.221c-1.114 3.412-1.757 7.339-1.757 11.416 0 0.262 0.003 0.523 0.008 0.783l-0.001-0.039c0.097 24.669 20.117 44.629 44.8 44.629 0 0 0 0 0 0h157.056l145.749 217.941c8.109 11.763 21.507 19.374 36.684 19.374 0.198 0 0.397-0.001 0.594-0.004h-0.030c15.078-0.056 28.424-7.418 36.689-18.73l0.090-0.129 145.877-218.453 157.013 0.299c24.748-0.024 44.8-20.092 44.8-44.843v0l-1.067-10.325-86.827-317.099c-9.762-33.363-40.009-57.347-75.885-57.515h-441.96zM172.117 530.688c-12.951-0.024-23.442-10.516-23.467-23.464v-0.002c-0.003-0.124-0.005-0.269-0.005-0.415 0-1.985 0.314-3.897 0.895-5.689l-0.037 0.13 86.485-315.733c6.918-24.26 28.869-41.732 54.907-41.771h442.074c26.22 0.038 48.342 17.537 55.364 41.49l0.103 0.408 87.040 322.901c-0.586 12.446-10.819 22.315-23.357 22.315-0.054 0-0.107 0-0.161-0.001h0.008l-168.405-0.299-152.107 227.755c-4.147 5.819-10.871 9.568-18.471 9.568-0.241 0-0.482-0.004-0.721-0.011l0.035 0.001h-0.469c-0.081 0.001-0.178 0.002-0.274 0.002-7.78 0-14.648-3.907-18.748-9.866l-0.050-0.077-152.107-227.371zM512.043 258.688v0c-43.433 0.049-78.629 35.245-78.677 78.673v0.005c0.049 43.433 35.245 78.629 78.673 78.677h0.005c43.433-0.049 78.629-35.245 78.677-78.673v-0.005c-0.265-43.346-35.332-78.413-78.652-78.677h-0.025zM512.043 394.709c0 0 0 0 0 0-31.687 0-57.381-25.663-57.429-57.339v-0.005c0.024-31.645 25.659-57.295 57.297-57.344h0.005c31.616 0.192 57.194 25.771 57.387 57.368v0.018c-0.073 31.609-25.689 57.21-57.297 57.259h-0.005zM634.24 530.688h-244.395l122.197 179.2zM430.208 552.021h163.669l-81.835 119.979z" />
<glyph unicode="&#xe91b;" glyph-name="minus" d="M213.333 490.667h640c23.564 0 42.667-19.103 42.667-42.667s-19.103-42.667-42.667-42.667h-640c-23.564 0-42.667 19.103-42.667 42.667s19.103 42.667 42.667 42.667z" />
<glyph unicode="&#xe91c;" glyph-name="mobile-menu" d="M891.52 701.056c0-23.281-18.873-42.155-42.155-42.155v0h-674.773c-23.281 0-42.155 18.873-42.155 42.155v0 0c0 23.281 18.873 42.155 42.155 42.155h674.645c0.038 0 0.083 0 0.128 0 23.281 0 42.155-18.873 42.155-42.155 0 0 0 0 0 0v0zM891.52 448.043c0-23.281-18.873-42.155-42.155-42.155v0h-674.773c-23.281 0-42.155 18.873-42.155 42.155v0 0c0 23.281 18.873 42.155 42.155 42.155h674.645c0.038 0 0.083 0 0.128 0 23.281 0 42.155-18.873 42.155-42.155 0 0 0 0 0 0v0zM891.52 195.029c0-23.281-18.873-42.155-42.155-42.155v0h-674.773c-23.281 0-42.155 18.873-42.155 42.155v0 0c0 23.281 18.873 42.155 42.155 42.155h674.645c0.038 0 0.083 0 0.128 0 23.281 0 42.155-18.873 42.155-42.155 0 0 0 0 0 0v0z" />
<glyph unicode="&#xe91d;" glyph-name="modify" d="M912.469 520.661l-300.843 302.933c-7.434 8.083-18.061 13.13-29.867 13.13s-22.432-5.047-29.84-13.101l-0.026-0.029-467.157-467.2c-7.763-7.612-12.628-18.155-12.8-29.835v-301.088c0-23.564 19.103-42.667 42.667-42.667v0h300.843c11.712 0.172 22.255 5.037 29.86 12.793l0.007 0.007 467.157 465.323c8.083 7.434 13.13 18.061 13.13 29.867s-5.047 22.432-13.101 29.84l-0.029 0.026zM398.379 68.139h-241.109v241.28l266.709 264.533 238.933-241.109zM724.736 392.405l-241.067 241.365 98.133 100.267 241.109-243.2z" />
<glyph unicode="&#xe91e;" glyph-name="multiple-choices" d="M517.803 660.395v0c0.265 23.197 19.131 41.9 42.365 41.9 0.106 0 0.212 0 0.317-0.001h342.555c0.090 0.001 0.195 0.001 0.301 0.001 23.235 0 42.101-18.703 42.365-41.875v-0.025c-0.265-23.197-19.131-41.9-42.365-41.9-0.106 0-0.212 0-0.317 0.001h-342.427c-0.090-0.001-0.195-0.001-0.301-0.001-23.235 0-42.101 18.703-42.365 41.875v0.025zM560.469 366.976h342.571c0.090-0.001 0.195-0.001 0.301-0.001 23.235 0 42.101 18.703 42.365 41.875v0.025c-0.265 23.197-19.131 41.9-42.365 41.9-0.106 0-0.212 0-0.317-0.001h-342.427c-0.090 0.001-0.195 0.001-0.301 0.001-23.235 0-42.101-18.703-42.365-41.875v-0.025c0.169-23.271 19.072-42.070 42.367-42.070 0.105 0 0.211 0 0.316 0.001h-0.016zM560.469 115.499h342.571c0.090-0.001 0.195-0.001 0.301-0.001 23.235 0 42.101 18.703 42.365 41.875v0.025c-0.265 23.197-19.131 41.9-42.365 41.9-0.106 0-0.212 0-0.317-0.001h-342.427c-0.090 0.001-0.195 0.001-0.301 0.001-23.235 0-42.101-18.703-42.365-41.875v-0.025c0.169-23.271 19.072-42.070 42.367-42.070 0.105 0 0.211 0 0.316 0.001h-0.016zM218.197 366.805h42.667c0.090-0.001 0.195-0.001 0.301-0.001 23.235 0 42.101 18.703 42.365 41.875v0.025c-0.265 23.197-19.131 41.9-42.365 41.9-0.106 0-0.212 0-0.317-0.001h-42.651c-0.090 0.001-0.195 0.001-0.301 0.001-23.235 0-42.101-18.703-42.365-41.875v-0.025c0.265-23.197 19.131-41.9 42.365-41.9 0.106 0 0.212 0 0.317 0.001h-0.016zM218.197 115.328h42.667c0.090-0.001 0.195-0.001 0.301-0.001 23.235 0 42.101 18.703 42.365 41.875v0.025c-0.265 23.197-19.131 41.9-42.365 41.9-0.106 0-0.212 0-0.317-0.001h-42.651c-0.090 0.001-0.195 0.001-0.301 0.001-23.235 0-42.101-18.703-42.365-41.875v-0.025c0.265-23.197 19.131-41.9 42.365-41.9 0.106 0 0.212 0 0.317 0.001h-0.016zM269.397 588.928l214.016 209.579c8.096 7.223 13.169 17.686 13.169 29.333s-5.073 22.111-13.131 29.299l-0.039 0.034c-7.529 7.889-18.125 12.794-29.867 12.794s-22.338-4.905-29.851-12.777l-0.015-0.016-184.107-180.181-55.467 54.485c-7.548 8.175-18.319 13.277-30.282 13.277-13.89 0-26.174-6.878-33.631-17.415l-0.086-0.129c-5.336-7.118-8.544-16.098-8.544-25.827 0-12.022 4.898-22.899 12.808-30.746l0.003-0.003 85.333-81.664c7.529-7.889 18.125-12.794 29.867-12.794s22.338 4.905 29.851 12.777l0.015 0.016zM517.077 660.224v0c0.289 23.202 19.165 41.899 42.408 41.899 0.091 0 0.182 0 0.273-0.001h343.026c0.077 0.001 0.168 0.001 0.259 0.001 23.243 0 42.119-18.698 42.407-41.872v-0.027c-0.289-23.202-19.165-41.899-42.408-41.899-0.091 0-0.182 0-0.273 0.001h-343.026c-0.077-0.001-0.168-0.001-0.259-0.001-23.243 0-42.119 18.698-42.407 41.872v0.027zM559.744 366.805h343.040c0.077-0.001 0.168-0.001 0.259-0.001 23.243 0 42.119 18.698 42.407 41.872v0.027c-0.289 23.202-19.165 41.899-42.408 41.899-0.091 0-0.182 0-0.273-0.001h-343.026c-0.077 0.001-0.168 0.001-0.259 0.001-23.243 0-42.119-18.698-42.407-41.872v-0.027c0.289-23.202 19.165-41.899 42.408-41.899 0.091 0 0.182 0 0.273 0.001h-0.014zM559.744 115.328h343.040c0.077-0.001 0.168-0.001 0.259-0.001 23.243 0 42.119 18.698 42.407 41.872v0.027c-0.289 23.202-19.165 41.899-42.408 41.899-0.091 0-0.182 0-0.273-0.001h-343.026c-0.077 0.001-0.168 0.001-0.259 0.001-23.243 0-42.119-18.698-42.407-41.872v-0.027c0.289-23.202 19.165-41.899 42.408-41.899 0.091 0 0.182 0 0.273 0.001h-0.014zM216.704 366.805h42.667c0.077-0.001 0.168-0.001 0.259-0.001 23.243 0 42.119 18.698 42.407 41.872v0.027c-0.289 23.202-19.165 41.899-42.408 41.899-0.091 0-0.182 0-0.273-0.001h-42.653c-0.077 0.001-0.168 0.001-0.259 0.001-23.243 0-42.119-18.698-42.407-41.872v-0.027c0.289-23.202 19.165-41.899 42.408-41.899 0.091 0 0.182 0 0.273 0.001h-0.014zM216.704 115.328h42.667c0.077-0.001 0.168-0.001 0.259-0.001 23.243 0 42.119 18.698 42.407 41.872v0.027c-0.289 23.202-19.165 41.899-42.408 41.899-0.091 0-0.182 0-0.273-0.001h-42.653c-0.077 0.001-0.168 0.001-0.259 0.001-23.243 0-42.119-18.698-42.407-41.872v-0.027c0.289-23.202 19.165-41.899 42.408-41.899 0.091 0 0.182 0 0.273 0.001h-0.014z" />
<glyph unicode="&#xe91f;" glyph-name="night" d="M356.437 753.067c-13.552-42.448-21.362-91.274-21.362-141.924 0-1.855 0.010-3.708 0.031-5.558l-0.003 0.282c13.246-194.883 141.369-356.732 316.658-419.227l3.342-1.040c-36.307-16.186-78.674-25.611-123.243-25.611-0.923 0-1.844 0.004-2.765 0.012l0.141-0.001h-36.267c-162.753 16.458-288.717 152.753-288.717 318.467 0 114.621 60.263 215.166 150.834 271.681l1.35 0.785zM484.437 883.2h-2.133c-206.172-23.28-364.928-196.679-364.928-407.157 0-15.138 0.821-30.084 2.422-44.797l-0.161 1.82c24.493-188.958 174.757-336.305 363.023-356.115l1.777-0.152h44.8c0.564-0.003 1.231-0.004 1.898-0.004 121.127 0 229.974 52.577 304.964 136.155l0.338 0.383c3.040 3.382 4.898 7.879 4.898 12.81 0 10.604-8.596 19.2-19.2 19.2-0.222 0-0.443-0.004-0.664-0.011l0.032 0.001h-40.533c-193.34 17.018-345.831 170.979-360.452 363.467l-0.081 1.333c-0.075 2.792-0.118 6.079-0.118 9.376 0 87.974 30.604 168.8 81.746 232.412l-0.561-0.721c2.664 3.521 4.267 7.973 4.267 12.8 0 11.782-9.551 21.333-21.333 21.333v0z" />
<glyph unicode="&#xe920;" glyph-name="password" d="M838.101 237.269l-264.533 266.581c23.665 34.031 37.809 76.229 37.809 121.731 0 0.569-0.002 1.138-0.007 1.706l0.001-0.087c0 120.861-97.977 218.837-218.837 218.837s-218.837-97.977-218.837-218.837c0-120.861 97.977-218.837 218.837-218.837v0c0.481-0.004 1.049-0.006 1.619-0.006 45.502 0 87.7 14.143 122.438 38.274l-0.707-0.465 119.467-117.376-91.52-91.52c-7.699-7.214-12.496-17.444-12.496-28.795 0-21.773 17.651-39.424 39.424-39.424 11.351 0 21.582 4.797 28.775 12.475l0.020 0.022 91.52 91.52 63.659-63.659-91.52-91.52c-7.699-7.214-12.496-17.444-12.496-28.795 0-21.773 17.651-39.424 39.424-39.424 11.351 0 21.582 4.797 28.775 12.475l0.020 0.022 119.467 119.467c7.543 6.934 12.253 16.848 12.253 27.861s-4.71 20.928-12.226 27.837l-0.027 0.025zM253.184 627.243c0 76.913 62.351 139.264 139.264 139.264s139.264-62.351 139.264-139.264c0-76.913-62.351-139.264-139.264-139.264v0c-76.913 0-139.264 62.351-139.264 139.264v0z" />
<glyph unicode="&#xe921;" glyph-name="phone-call" d="M785.877 24.96c-0.439-0.010-0.956-0.016-1.475-0.016-2.758 0-5.478 0.161-8.151 0.473l0.325-0.031c-126.006 14.132-239.808 56.628-338.046 120.933l2.942-1.807c-94.136 60.612-171.892 138.382-230.681 229.537l-1.81 2.997c-62.523 95.511-104.951 209.587-118.557 332.355l-0.313 3.474c-0.309 3.107-0.485 6.717-0.485 10.367 0 57.682 44.025 105.082 100.306 110.431l0.446 0.034c3.328 0.299 6.613 0.427 9.899 0.427h111.787c55.537-0.292 101.396-41.349 109.197-94.76l0.072-0.6c4.836-35.854 13.2-68.219 24.904-98.936l-1.011 3.022c4.441-11.532 7.013-24.874 7.013-38.817 0-30.375-12.208-57.898-31.984-77.931l0.012 0.012-26.624-26.283c44.071-68.577 100.622-125.236 166.918-168.115l2.17-1.315 26.453 26.453c20.031 19.818 47.59 32.062 78.009 32.062 13.989 0 27.373-2.589 39.7-7.315l-0.76 0.256c27.568-10.609 59.791-18.914 93.207-23.468l2.281-0.254c54.312-7.798 95.592-54.012 95.592-109.867 0-0.72-0.007-1.438-0.021-2.155l0.002 0.107v-110.293c0-0.076 0-0.166 0-0.257 0-60.975-49.309-110.434-110.228-110.676h-0.023zM311.68 760.107h-111.616c-11.293-0.217-21.362-5.276-28.249-13.181l-0.039-0.046c-5.397-6.348-8.679-14.64-8.679-23.698 0-1.15 0.053-2.288 0.156-3.411l-0.011 0.144c12.627-114 50.984-216.997 109.112-305.896l-1.634 2.664c54.793-85.146 125.1-155.48 207.513-208.669l2.705-1.635c86.136-56.554 189.012-95.015 299.75-107.526l3.183-0.292c1.194-0.151 2.576-0.237 3.978-0.237 9.856 0 18.717 4.263 24.839 11.045l0.026 0.029c6.618 6.63 10.71 15.783 10.71 25.891 0 0.063 0 0.125 0 0.188v-0.010 112.128c0.007 0.273 0.011 0.594 0.011 0.916 0 18.566-13.709 33.93-31.556 36.522l-0.199 0.024c-41.646 5.62-79.238 15.329-114.921 28.909l3.518-1.176c-3.9 1.537-8.418 2.429-13.143 2.429-10.102 0-19.252-4.073-25.899-10.666l-46.931-46.931c-6.678-6.672-15.9-10.798-26.086-10.798-6.71 0-13.002 1.791-18.423 4.92l0.178-0.095c-98.498 56.921-178.048 136.69-233.094 232.347l-1.615 3.045c-3.051 5.251-4.851 11.555-4.851 18.279 0 10.193 4.137 19.42 10.824 26.093l46.934 46.934c6.5 6.647 10.511 15.753 10.511 25.795 0 4.667-0.866 9.132-2.447 13.242l0.085-0.253c-12.481 32.296-22.236 70.033-27.566 109.177l-0.296 2.652c-2.92 17.762-18.161 31.148-36.527 31.148-0.088 0-0.177 0-0.265-0.001h0.014zM749.696 503.851c-17.879 0.006-32.782 12.739-36.142 29.632l-0.039 0.235c-11.686 59.113-57.531 104.944-115.716 116.454l-0.934 0.154c-17.314 3.289-30.228 18.303-30.228 36.333 0 20.407 16.543 36.949 36.949 36.949 2.62 0 5.176-0.273 7.642-0.791l-0.241 0.042c88.699-17.453 157.48-86.234 174.703-173.535l0.23-1.399c0.437-2.13 0.686-4.579 0.686-7.085 0-17.879-12.713-32.788-29.592-36.182l-0.236-0.040c-2.112-0.451-4.553-0.729-7.052-0.768h-0.031zM897.323 504.235c-0.004 0-0.010 0-0.015 0-18.916 0-34.505 14.248-36.62 32.597l-0.016 0.171c-15.363 137.29-123.426 245.177-259.463 260.149l-1.316 0.118c-18.666 2.122-33.035 17.826-33.035 36.885 0 20.495 16.615 37.11 37.11 37.11 1.436 0 2.852-0.082 4.245-0.24l-0.17 0.016c171.81-18.878 306.942-153.966 325.74-324.111l0.148-1.649c0.146-1.234 0.23-2.664 0.23-4.113 0-18.954-14.272-34.575-32.655-36.703l-0.172-0.016c-1.156-0.169-2.542-0.292-3.946-0.34l-0.065-0.002z" />
<glyph unicode="&#xe922;" glyph-name="plus" d="M832 490.667h-277.333v277.333c0 23.564-19.103 42.667-42.667 42.667s-42.667-19.103-42.667-42.667v0-277.333h-277.333c-23.564 0-42.667-19.103-42.667-42.667s19.103-42.667 42.667-42.667v0h277.333v-277.333c0-23.564 19.103-42.667 42.667-42.667s42.667 19.103 42.667 42.667v0 277.333h277.333c23.564 0 42.667 19.103 42.667 42.667s-19.103 42.667-42.667 42.667v0z" />
<glyph unicode="&#xe923;" glyph-name="pricing" d="M485.035 828.288l366.379-366.336v-353.365h-353.365l-366.379 366.336 353.365 353.365zM485.035 932.352c-11.9-0.095-22.643-4.97-30.419-12.798l-413.869-413.869c-8.223-7.553-13.358-18.355-13.358-30.357s5.135-22.805 13.328-30.33l0.030-0.027 422.4-423.083h431.616c23.941 0 43.349 19.408 43.349 43.349v0 431.403l-422.741 422.912c-7.758 7.81-18.467 12.681-30.313 12.8h-0.023zM739.541 305.792c0-47.128-38.205-85.333-85.333-85.333s-85.333 38.205-85.333 85.333c0 47.128 38.205 85.333 85.333 85.333s85.333-38.205 85.333-85.333z" />
<glyph unicode="&#xe924;" glyph-name="receptionstroke" d="M915.328 122.88h-806.656c-20.736 0-37.547 16.81-37.547 37.547v0 53.717c0 20.745 16.805 37.565 37.544 37.589h806.658c20.732-0.049 37.522-16.854 37.547-37.587v-53.719c-0.024-20.727-16.82-37.522-37.544-37.547h-0.002zM108.672 230.4c-8.96-0.024-16.213-7.293-16.213-16.256 0 0 0 0 0 0v0-53.717c0-8.954 7.259-16.213 16.213-16.213v0h806.656c8.954 0 16.213 7.259 16.213 16.213v0 53.717c0 0 0 0 0 0 0 8.963-7.254 16.232-16.211 16.256h-0.002zM899.115 284.032h-774.229v10.667c0.983 190.576 138.876 348.657 320.294 380.965l2.351 0.347v11.349h-16.213c-20.727 0.024-37.522 16.82-37.547 37.544v26.882c0.024 20.727 16.82 37.522 37.544 37.547h161.325c20.727-0.024 37.522-16.82 37.547-37.544v-26.925c0-20.736-16.81-37.547-37.547-37.547v0h-16.213v-11.349c183.774-32.634 321.679-190.699 322.688-381.161v-0.108zM146.389 305.365h731.264c-6.327 178.589-139.163 324.329-311.301 350.634l-2.043 0.257-9.173 1.323v51.2h37.547c8.954 0 16.213 7.259 16.213 16.213v0 26.923c-0.024 8.945-7.269 16.189-16.211 16.213h-161.325c-8.945-0.024-16.189-7.269-16.213-16.211v-26.882c0-8.954 7.259-16.213 16.213-16.213v0h37.547v-51.2l-9.173-1.323c-174.195-26.565-307.037-172.326-313.326-350.297l-0.018-0.636z" />
<glyph unicode="&#xe925;" glyph-name="reservation-confirmed" d="M810.667 597.333h-149.333l8.533 70.4c12.8 104.533-8.533 187.733-76.8 206.933h-6.4c-14.545-2.621-26.356-12.315-31.894-25.321l-0.106-0.279s-149.333-315.733-213.333-315.733h-234.667c-23.564 0-42.667-19.103-42.667-42.667v0-341.333c0-23.564 19.103-42.667 42.667-42.667v0h283.733c0.864 0.078 1.87 0.122 2.885 0.122 8.738 0 16.71-3.284 22.748-8.684l-0.033 0.029c29.867-21.333 130.133-76.8 181.333-76.8h106.667c125.867 0 234.667 85.333 245.333 253.867v0l10.667 172.8c0.096 1.955 0.15 4.246 0.15 6.55 0 78.94-63.993 142.933-142.933 142.933-2.304 0-4.595-0.055-6.872-0.162l0.322 0.012zM149.333 448h128v-256h-128zM864 281.6v0c-8.533-110.933-68.267-174.933-160-174.933h-106.667c-49.503 14.312-92.744 34.702-131.843 60.808l1.71-1.074c-20.633 15.975-46.879 25.608-75.375 25.608-0.501 0-1.001-0.003-1.501-0.009l0.076 0.001h-27.733v256c40.533 8.533 106.667 46.933 224 273.067 0.033-1.784 0.052-3.888 0.052-5.996 0-13.672-0.794-27.159-2.338-40.417l0.153 1.613-8.533-70.4-10.667-93.867h245.333c1.977 0.241 4.266 0.378 6.588 0.378 31.812 0 57.6-25.788 57.6-57.6 0-1.635-0.068-3.254-0.202-4.854l0.014 0.209z" />
<glyph unicode="&#xe926;" glyph-name="reservation-failed" d="M960 448l-10.667 172.8c-10.667 168.533-119.467 253.867-245.333 253.867h-106.667c-51.2 0-151.467-55.467-181.333-76.8-6.005-5.372-13.976-8.655-22.715-8.655-1.016 0-2.021 0.044-3.014 0.131l0.129-0.009h-283.733c-23.564 0-42.667-19.103-42.667-42.667v0-341.333c0-23.564 19.103-42.667 42.667-42.667v0h234.667c64 0 213.333-315.733 213.333-315.733 5.644-13.285 17.455-22.979 31.74-25.561l0.26-0.039h6.4c68.267 19.2 89.6 102.4 76.8 206.933l-8.533 70.4h149.333c1.955-0.096 4.246-0.15 6.55-0.15 78.94 0 142.933 63.993 142.933 142.933 0 2.304-0.055 4.595-0.162 6.872l0.012-0.322zM149.333 704h128v-256h-128zM874.667 445.867c0.119-1.391 0.188-3.010 0.188-4.645 0-31.812-25.788-57.6-57.6-57.6-2.321 0-4.61 0.137-6.86 0.404l0.272-0.026h-245.333l10.667-93.867 8.533-70.4c1.391-11.645 2.185-25.132 2.185-38.804 0-2.108-0.019-4.213-0.056-6.312l0.004 0.316c-117.333 226.133-183.467 264.533-224 273.067v256h27.733c0.424-0.005 0.924-0.008 1.425-0.008 28.496 0 54.742 9.633 75.659 25.82l-0.284-0.212c37.39 25.031 80.63 45.422 126.816 58.904l3.317 0.83h106.667c91.733 0 151.467-64 160-172.8v0z" />
<glyph unicode="&#xe927;" glyph-name="restaurant-fill" d="M450.645 568.789h-80.555v281.856h-80.512v-281.856h-80.555v281.856h-80.512v-281.856c0.196-85.149 66.663-154.711 150.545-159.85l0.452-0.022v-363.605h100.736v363.605c84.335 5.161 150.801 74.723 150.997 159.853v281.875h-80.597zM651.989 689.579v-322.133h100.651v-322.133h100.651v805.333c-110.933 0-201.301-90.197-201.301-161.067z" />
<glyph unicode="&#xe928;" glyph-name="restostroke" d="M814.208 122.667h-102.016v258.133h-80.811v268.8c0 63.275 76.8 139.733 172.032 139.733h10.667zM733.525 144h59.349v623.616c-76.501-5.333-140.032-67.072-140.032-118.016v-247.467h80.683zM434.859 122.667h-102.144v292.309c-68.449 9.444-120.649 67.394-121.003 137.606v236.666h85.845v-226.133h43.52v226.133h85.845v-226.133h43.221v226.133h85.845v-236.8c-0.293-70.281-52.521-128.274-120.275-137.603l-0.727-0.082zM354.219 144h59.307v290.475l10.069 0.597c61.888 3.921 110.636 54.929 110.933 117.389v215.454h-43.179v-226.133h-86.101v226.133h-42.667v-226.133h-85.888v226.133h-43.179v-215.253c0.322-62.461 49.066-113.436 110.592-117.316l0.341-0.017 10.069-0.597z" />
<glyph unicode="&#xe929;" glyph-name="restricted" d="M529.365 948.523c-264.631-1.267-478.665-216.084-478.665-480.891 0-265.592 215.304-480.896 480.896-480.896s480.896 215.304 480.896 480.896c0 132.819-53.845 253.061-140.896 340.090l-0.001 0.001c-87.021 86.998-207.226 140.805-339.999 140.805-0.784 0-1.568-0.002-2.352-0.006h0.121zM136.32 511.573c23.653 197.776 190.403 349.631 392.621 349.631 93.517 0 179.448-32.476 247.131-86.766l-0.776 0.602-555.52-555.52c-53.61 67.14-86.025 153.254-86.025 246.939 0 15.896 0.933 31.574 2.748 46.982l-0.179-1.868zM573.312 72.405c-12.614-1.412-27.237-2.218-42.048-2.218-94.967 0-182.197 33.123-250.768 88.446l0.764-0.596 555.52 553.344c55.023-66.286 88.412-152.249 88.412-246.011 0-16.181-0.994-32.131-2.926-47.79l0.188 1.875c-22.791-182.44-166.416-325.307-347.265-346.742l-1.877-0.181z" />
<glyph unicode="&#xe92a;" glyph-name="room-service" d="M55.296 221.824h922.069v-92.203h-922.069zM601.131 646.443c4.629 10.757 7.339 23.275 7.381 36.421v0.016c0 50.922-41.281 92.203-92.203 92.203s-92.203-41.281-92.203-92.203v0c0.043-13.162 2.753-25.68 7.617-37.058l-0.236 0.62c-180.987-38.527-316.906-190.905-330.038-377.178l-0.074-1.318h829.867c-13.225 187.573-149.138 339.93-327.389 377.967l-2.723 0.487zM55.296 221.824h922.069v-92.203h-922.069z" />
<glyph unicode="&#xe92b;" glyph-name="roomservicestroke" d="M983.595 115.669h-943.232v113.536h943.232zM61.696 137.003h900.565v70.869h-900.565zM938.283 253.952h-852.523l0.768 11.392c13.709 187.983 147.077 341.328 323.677 384.923l2.936 0.613c-2.523 8.547-3.987 18.37-4.011 28.531v0.013c1.006 55.231 45.442 99.756 100.542 100.905l0.108 0.002c0.457 0.007 0.997 0.011 1.538 0.011 27.837 0 53.131-10.89 71.853-28.642l-0.047 0.044c19.116-18.203 31.166-43.676 31.7-71.966l0.001-0.098c-0.008-10.258-1.472-20.172-4.197-29.549l0.186 0.749c179.555-44.193 312.941-197.542 326.574-384.14l0.082-1.396zM108.757 275.285h806.4c-18.133 177.577-148.327 320.205-317.966 356.849l-2.674 0.484-12.8 2.645 5.035 11.904c4.11 9.549 6.508 20.662 6.528 32.334v0.007c-0.519 22.386-10.035 42.452-25.057 56.802l-0.031 0.030c-14.461 14.034-34.213 22.686-55.987 22.686-0.777 0-1.552-0.011-2.324-0.033l0.114 0.003c-43.694-0.89-78.878-36.089-79.743-79.705l-0.001-0.082c0.045-11.583 2.457-22.59 6.778-32.58l-0.207 0.537 4.992-11.904-12.8-2.645c-172.144-37.287-302.157-179.862-320.113-355.609l-0.143-1.724z" />
<glyph unicode="&#xe92c;" glyph-name="room-with-balcony" d="M513.707 745.899c23.564 0 42.667 19.103 42.667 42.667v0 85.931c0 23.564-19.103 42.667-42.667 42.667s-42.667-19.103-42.667-42.667v0-85.803c0-23.564 19.103-42.667 42.667-42.667v0zM513.707 146.432c-23.564 0-42.667-19.103-42.667-42.667v0-85.632c0-23.647 19.169-42.816 42.816-42.816s42.816 19.169 42.816 42.816v0 85.632c0 0 0 0.001 0 0.001 0 23.564-19.103 42.667-42.667 42.667-0.105 0-0.21 0-0.315-0.001h0.016zM785.749 658.261l62.123 59.733c6.86 8.395 11.016 19.232 11.016 31.040s-4.157 22.645-11.086 31.128l0.070-0.088c-8.395 6.86-19.232 11.016-31.040 11.016s-22.645-4.157-31.128-11.086l0.088 0.070-60.032-62.080c-10.41-7.867-17.067-20.223-17.067-34.133 0-23.564 19.103-42.667 42.667-42.667 13.911 0 26.267 6.657 34.056 16.959l0.078 0.107zM242.005 234.24l-62.080-59.733c-6.86-8.395-11.016-19.232-11.016-31.040s4.157-22.645 11.086-31.128l-0.070 0.088c8.395-6.86 19.232-11.016 31.040-11.016s22.645 4.157 31.128 11.086l-0.088-0.070 59.733 61.824c10.41 7.867 17.067 20.223 17.067 34.133 0 23.564-19.103 42.667-42.667 42.667-13.911 0-26.267-6.657-34.056-16.959l-0.078-0.107zM942.037 488.96h-85.803c-23.647 0-42.816-19.169-42.816-42.816s19.169-42.816 42.816-42.816v0h85.632c23.647 0 42.816 19.169 42.816 42.816s-19.169 42.816-42.816 42.816v0zM214.101 446.293c0 23.564-19.103 42.667-42.667 42.667v0h-85.931c-23.647 0-42.816-19.169-42.816-42.816s19.169-42.816 42.816-42.816v0h85.803c0 0 0.001 0 0.001 0 23.564 0 42.667 19.103 42.667 42.667 0 0.105 0 0.21-0.001 0.315v-0.016zM785.749 234.24c-7.867 10.41-20.223 17.067-34.133 17.067-23.564 0-42.667-19.103-42.667-42.667 0-13.911 6.657-26.267 16.959-34.056l0.107-0.078 59.733-62.080c8.109-12.606 22.066-20.837 37.946-20.837 24.837 0 44.971 20.134 44.971 44.971 0 15.88-8.231 29.838-20.659 37.839l-0.178 0.107zM242.005 658.261c7.042-5.327 15.947-8.533 25.6-8.533 23.564 0 42.667 19.103 42.667 42.667 0 9.653-3.206 18.558-8.611 25.707l0.078-0.107-59.733 62.123c-8.395 6.86-19.232 11.016-31.040 11.016s-22.645-4.157-31.128-11.086l0.088 0.070c-6.86-8.395-11.016-19.232-11.016-31.040s4.157-22.645 11.086-31.128l-0.070 0.088zM513.835 660.267c-118.245 0-214.101-95.856-214.101-214.101s95.856-214.101 214.101-214.101c118.245 0 214.101 95.856 214.101 214.101v0c0 118.245-95.856 214.101-214.101 214.101v0zM513.835 317.696c-70.952 0-128.469 57.518-128.469 128.469s57.518 128.469 128.469 128.469c70.952 0 128.469-57.518 128.469-128.469v0c0-70.952-57.518-128.469-128.469-128.469v0z" />
<glyph unicode="&#xe92d;" glyph-name="safeoutline" d="M661.333 516.267v104.533l-149.333 83.2-149.333-83.2v-104.533c0-72.533 110.933-155.733 140.8-172.8h17.067c32 17.067 140.8 100.267 140.8 172.8zM576 516.267c-16.292-29.718-37.764-54.595-63.441-74.256l-0.559-0.411v164.267l64-36.267zM149.333 234.667h277.333v85.333h-234.667v426.667h640v-426.667h-234.667v-85.333h277.333c23.564 0 42.667 19.103 42.667 42.667v0 512c0 23.564-19.103 42.667-42.667 42.667v0h-725.333c-23.564 0-42.667-19.103-42.667-42.667v0-512c0-23.564 19.103-42.667 42.667-42.667v0zM938.667 149.333h-853.333c-23.564 0-42.667-19.103-42.667-42.667s19.103-42.667 42.667-42.667v0h853.333c23.564 0 42.667 19.103 42.667 42.667s-19.103 42.667-42.667 42.667v0z" />
<glyph unicode="&#xe92e;" glyph-name="search" horiz-adv-x="939" d="M595.243 365.824c37.156 47.471 59.582 108.029 59.582 173.824 0 12.287-0.782 24.392-2.299 36.267l0.147-1.408c-17.995 135.604-127.169 240.864-263.099 252.681l-1.093 0.077c-9.465 1.104-20.43 1.734-31.543 1.734-158.893 0-287.701-128.808-287.701-287.701 0-149.779 114.456-272.826 260.676-286.449l1.14-0.086c10.821-1.417 23.334-2.225 36.037-2.225 65.752 0 126.445 21.662 175.331 58.239l-0.765-0.548 239.317-237.397c6.674-7.243 16.206-11.765 26.795-11.765s20.121 4.522 26.772 11.74l0.023 0.025c7.243 6.674 11.765 16.206 11.765 26.795s-4.522 20.121-11.74 26.772l-0.025 0.023zM401.877 331.349c-10.7-1.924-23.016-3.024-35.589-3.024-116.501 0-210.944 94.443-210.944 210.944s94.443 210.944 210.944 210.944c116.501 0 210.944-94.443 210.944-210.944 0-12.573-1.1-24.889-3.209-36.858l0.185 1.268c-15.433-88.323-84.153-156.985-171.243-172.149l-1.259-0.181z" />
<glyph unicode="&#xe92f;" glyph-name="secure" d="M500.907 825.643c112.299-32.128 235.221-70.656 296.661-92.032v-336.085c0-72.789-78.421-201.216-296.661-329.685-218.283 130.603-296.661 256.896-296.661 329.685v336.043c61.44 23.552 184.363 59.733 296.661 92.032zM500.907 915.541s-381.44-109.184-381.44-128.427v-389.589c0-196.949 281.856-370.347 360.235-417.451 5.94-4.061 13.279-6.484 21.184-6.484s15.244 2.424 21.314 6.568l-0.13-0.084c80.512 44.971 360.235 220.501 360.235 417.451v389.589c0.043 19.243-381.397 128.427-381.397 128.427zM411.733 321.707l-101.12 109.653c-7.61 8.832-12.244 20.416-12.244 33.083 0 10.147 2.974 19.599 8.098 27.533l-0.121-0.2c6.106 10.408 16.784 17.565 29.205 18.719l0.15 0.011c0.668 0.043 1.449 0.068 2.235 0.068 11.805 0 22.308-5.575 29.020-14.235l0.063-0.084 72.789-80.555 194.133 214.827c6.505 5.535 15.004 8.901 24.289 8.901 11.414 0 21.639-5.087 28.533-13.118l0.042-0.050c7.364-8.438 11.854-19.55 11.854-31.711 0-9.982-3.025-19.257-8.209-26.958l0.109 0.173-222.421-246.144c-6.645-8.423-16.851-13.781-28.309-13.781s-21.665 5.358-28.251 13.705l-0.058 0.076z" />
<glyph unicode="&#xe930;" glyph-name="send" d="M957.867 465.067l-810.667 384-19.2 4.267c-23.564 0-42.667-19.103-42.667-42.667v0l128-384-128-384c0-23.564 19.103-42.667 42.667-42.667v0l19.2 4.267 810.667 384c14.361 7.071 24.069 21.602 24.069 38.4s-9.707 31.329-23.819 38.289l-0.25 0.111zM202.667 125.867l85.333 258.133h224c23.564 0 42.667 19.103 42.667 42.667s-19.103 42.667-42.667 42.667v0h-224l-85.333 258.133 635.733-300.8z" />
<glyph unicode="&#xe931;" glyph-name="show" d="M966.4 488.533v0c-44.8 55.467-211.2 236.8-454.4 236.8s-409.6-181.333-454.4-236.8c-9.009-10.943-14.472-25.1-14.472-40.533s5.463-29.59 14.56-40.644l-0.088 0.11c44.8-55.467 211.2-236.8 454.4-236.8s409.6 181.333 454.4 236.8c9.009 10.943 14.472 25.1 14.472 40.533s-5.463 29.59-14.56 40.644l0.088-0.11zM512 256c-187.733 0-326.4 132.267-377.6 192 51.2 59.733 189.867 192 377.6 192s326.4-132.267 377.6-192c-51.2-59.733-189.867-192-377.6-192zM640 448c0-70.692-57.308-128-128-128s-128 57.308-128 128c0 70.692 57.308 128 128 128s128-57.308 128-128z" />
<glyph unicode="&#xe932;" glyph-name="snapchat" d="M736.555 917.931h-462.72c-127.315-1.171-230.21-104.067-231.381-231.27l-0.001-0.112v-462.72c1.171-127.315 104.067-230.21 231.27-231.381l0.112-0.001h462.72c127.315 1.171 230.21 104.067 231.381 231.27l0.001 0.112v462.72c-1.171 127.315-104.067 230.21-231.27 231.381l-0.112 0.001zM782.848 303.531c-4.685-5.836-10.247-10.733-16.532-14.562l-0.278-0.158-54.699-12.8-6.315-4.267c-0.91-4.147-1.651-9.179-2.064-14.304l-0.027-0.416v-4.267c0.049-0.422 0.077-0.91 0.077-1.406 0-2.658-0.81-5.127-2.197-7.173l0.029 0.045c-2.091-4.267-4.267-6.315-8.533-6.315h-67.243c-16.982-3.695-31.856-11.036-44.354-21.188l0.194 0.153c-20.283-17.015-46.67-27.35-75.47-27.35-0.093 0-0.185 0-0.278 0h-6.173c-29.149 0.561-55.611 11.624-75.858 29.548l0.124-0.108c-12.495 9.512-27.271 16.772-43.316 20.853l-0.844 0.182h-65.323c-0.256-0.022-0.553-0.035-0.854-0.035-4.298 0-7.993 2.583-9.616 6.282l-0.026 0.067c-2.291 3.656-3.82 8.011-4.258 12.683l-0.009 0.117c-1.252 4.915-3.434 9.204-6.366 12.867l0.052-0.067c0 2.356-1.91 4.267-4.267 4.267v0c-20.299 2.483-38.773 7.662-55.967 15.217l1.268-0.497c-6.861 2.691-12.558 7.097-16.739 12.7l-0.071 0.1 6.315 6.315c19.843 2.374 37.723 9.179 53.146 19.397l-0.453-0.282c14.059 9.136 25.914 20.325 35.495 33.296l0.259 0.368c13.082 13.887 23.184 30.736 29.184 49.424l0.256 0.923c3.399 4.738 5.436 10.653 5.436 17.044 0 2.927-0.427 5.754-1.222 8.423l0.053-0.208c-6.315 14.72-23.125 18.944-35.755 23.125h-2.133l-6.315 4.267c-7.449 1.796-13.869 5.471-18.947 10.499l0.003-0.003c-3.845 2.256-6.387 6.37-6.387 11.077 0 5.519 3.493 10.222 8.388 12.019l0.089 0.029c6.315 4.267 16.811 6.315 21.035 2.091 7.583-4.145 16.611-6.583 26.209-6.583 5.655 0 11.113 0.846 16.253 2.419l-0.393-0.103c10.496 6.315 4.267 4.267 4.267 6.315s-2.091 10.496-2.091 14.72v0c-1.495 11.771-2.348 25.391-2.348 39.21 0 26.453 3.126 52.176 9.030 76.82l-0.453-2.238c9.391 18.763 21.359 34.765 35.675 48.309l0.079 0.075c11.018 10.933 24.361 19.541 39.221 25.014l0.758 0.244c18.449 9.139 40.171 14.493 63.142 14.507h10.501c22.993-0.321 44.65-5.717 64.004-15.114l-0.9 0.394c15.441-6.281 28.693-14.808 40.064-25.337l-0.085 0.078c14.371-13.102 25.784-29.184 33.298-47.293l0.323-0.878c5.932-21.671 9.341-46.554 9.341-72.232 0-14.589-1.1-28.921-3.222-42.918l0.196 1.571v-8.533c0-0.025 0-0.055 0-0.086 0-3.452 1.667-6.515 4.239-8.428l0.028-0.020h12.8l25.259 8.533h18.944c7.722-0.939 13.781-6.998 14.712-14.639l0.008-0.081c0-2.091 0-4.267-4.267-10.496l-21.035-10.496h-8.533c-14.742-1.921-27.367-9.703-35.654-20.892l-0.101-0.142c-0.768-2.682-1.21-5.761-1.21-8.944 0-6.847 2.044-13.216 5.555-18.531l-0.078 0.126c22.447-49.49 65.925-86.056 118.708-98.621l1.185-0.238c2.6-1.933 4.267-4.996 4.267-8.448 0-0.030 0-0.060 0-0.090v0.005z" />
<glyph unicode="&#xe933;" glyph-name="snowflakestroke" d="M513.024 114.645h-0.427c-11.105 0.008-21.183 4.397-28.6 11.533l0.013-0.013c-7.573 6.923-12.305 16.845-12.305 27.872 0 0.401 0.006 0.801 0.019 1.2l-0.001-0.058c0.054 11.033 4.875 20.93 12.507 27.744l0.037 0.032c7.182 6.943 16.978 11.222 27.773 11.222 0.076 0 0.152 0 0.228-0.001h0.543c21.615-0.278 39.095-17.594 39.636-39.117l0.001-0.051c0.001-0.127 0.002-0.277 0.002-0.427 0-11.021-4.45-21.003-11.652-28.247l0.002 0.002c-7.063-7.21-16.896-11.682-27.774-11.691h-0.002zM485.589 154.88l7.467-0.256c-0.007-0.173-0.010-0.375-0.010-0.579 0-4.85 2.107-9.208 5.456-12.207l0.016-0.014c3.825-3.444 8.849-5.624 14.377-5.844l0.044-0.001c0.061-0.001 0.133-0.001 0.205-0.001 4.94 0 9.403 2.043 12.591 5.33l0.004 0.004c3.399 3.339 5.505 7.984 5.505 13.122 0 0.082-0.001 0.164-0.002 0.246v-0.012c0.001 0.059 0.001 0.129 0.001 0.199 0 5.060-2.092 9.631-5.458 12.895l-0.005 0.004c-3.228 3.125-7.633 5.052-12.489 5.052-0.275 0-0.548-0.006-0.819-0.018l0.039 0.001c-0.028 0-0.061 0-0.094 0-5.248 0-10.005-2.101-13.477-5.507l0.003 0.003c-3.495-2.997-5.71-7.4-5.76-12.322v-0.009zM514.304 199.808h-0.64c-11.057 0.007-21.090 4.381-28.472 11.49l0.013-0.012c-7.547 7.031-12.252 17.027-12.252 28.122 0 0.253 0.002 0.506 0.007 0.758l-0.001-0.038v111.915l-78.848-78.848c-7.346-7.321-17.48-11.847-28.672-11.847s-21.326 4.526-28.673 11.848l0.001-0.001c-7.212 7.247-11.696 17.215-11.776 28.23v0.015c-0.001 0.122-0.002 0.267-0.002 0.412 0 11.1 4.946 21.044 12.754 27.75l0.049 0.041 79.573 79.445h-112.512c-10.995 0.211-20.91 4.664-28.211 11.784l0.009-0.008c-7.576 5.735-12.421 14.736-12.421 24.867 0 0.603 0.017 1.202 0.051 1.796l-0.004-0.082c0.038 11.065 4.404 21.103 11.492 28.517l-0.015-0.016c6.479 7.541 16.027 12.288 26.683 12.288 0.61 0 1.215-0.016 1.817-0.046l-0.084 0.003h112.213l-79.317 79.488c-7.431 6.532-12.096 16.058-12.096 26.673 0 0.433 0.008 0.864 0.023 1.293l-0.002-0.062c0 0.001 0 0.001 0 0.002 0 22.133 17.834 40.101 39.915 40.318h0.021c0.437 0.018 0.95 0.028 1.466 0.028 10.992 0 20.885-4.702 27.779-12.204l0.025-0.027 78.763-78.763v111.36c0 0.021 0 0.047 0 0.072 0 11.328 4.672 21.565 12.194 28.89l0.009 0.009c7.062 7.399 17 12 28.014 12 0.321 0 0.642-0.004 0.962-0.012l-0.047 0.001c11.16-0.182 21.173-4.943 28.269-12.481l0.019-0.020c6.974-7.256 11.269-17.132 11.269-28.011 0-0.217-0.002-0.435-0.005-0.651v0.033-112.171l79.915 80.085c7.325 7.103 17.327 11.481 28.352 11.481s21.027-4.379 28.362-11.491l-0.010 0.010c6.621-7.349 10.671-17.128 10.671-27.853 0-0.213-0.002-0.426-0.005-0.638v0.032c0.008-0.29 0.013-0.631 0.013-0.974 0-10.264-4.090-19.572-10.73-26.384l0.008 0.008-79.573-79.317h112.299c0.363 0.013 0.789 0.021 1.217 0.021 10.766 0 20.396-4.863 26.814-12.511l0.044-0.054c6.947-7.158 11.23-16.935 11.23-27.712 0-0.292-0.003-0.584-0.009-0.875l0.001 0.043c-0.33-21.483-17.646-38.814-39.092-39.168h-112.802l79.957-79.915c6.692-6.94 10.815-16.397 10.815-26.817 0-0.442-0.007-0.883-0.022-1.321l0.002 0.064c0.001-0.096 0.001-0.21 0.001-0.324 0-10.47-3.916-20.025-10.363-27.281l0.037 0.042c-7.266-7.747-17.511-12.625-28.896-12.8h-0.032c-11.169 0.020-21.216 4.806-28.22 12.431l-0.025 0.028-79.573 79.915v-112.725c0.002-0.135 0.003-0.295 0.003-0.455 0-10.975-4.489-20.901-11.731-28.042l-0.005-0.004c-6.971-7.089-16.666-11.482-27.386-11.482-0.212 0-0.424 0.002-0.635 0.005h0.032zM513.877 221.141c0.132-0.004 0.286-0.006 0.442-0.006 4.859 0 9.244 2.031 12.352 5.29l0.006 0.007c3.424 3.323 5.548 7.968 5.548 13.109 0 0.086-0.001 0.172-0.002 0.258v-0.013 164.48l116.309-116.565c3.041-3.611 7.565-5.889 12.621-5.889 0.063 0 0.126 0 0.188 0.001h-0.010c5.241 0.049 9.963 2.229 13.35 5.713l0.004 0.004c2.897 3.485 4.656 8.007 4.656 12.94 0 0.161-0.002 0.321-0.006 0.481v-0.024c0.015 0.269 0.023 0.585 0.023 0.902 0 4.609-1.795 8.798-4.725 11.907l0.008-0.009-116.224 116.224h163.84c9.907 0.236 17.866 8.254 18.005 18.163v0.013c0.002 0.1 0.003 0.217 0.003 0.335 0 5.199-2.104 9.907-5.507 13.319v0c-3.078 3.406-7.455 5.588-12.343 5.759l-0.030 0.001h-164.053l116.053 115.627c2.834 2.984 4.578 7.028 4.578 11.479 0 0.224-0.004 0.448-0.013 0.67l0.001-0.032c0.008 0.217 0.013 0.473 0.013 0.729 0 5.212-1.911 9.977-5.070 13.633l0.023-0.027c-3.319 3.065-7.772 4.945-12.664 4.945-5.024 0-9.584-1.982-12.942-5.207l0.006 0.006-116.608-116.864v163.925c0.002 0.103 0.003 0.225 0.003 0.348 0 5.249-2.102 10.008-5.51 13.479l0.003-0.003c-3.243 3.41-7.748 5.594-12.763 5.801l-0.037 0.001c-0.056 0.001-0.122 0.001-0.189 0.001-5.317 0-10.126-2.171-13.591-5.674l-0.002-0.002c-3.708-3.494-6.027-8.428-6.059-13.904v-162.907l-115.2 115.2c-3.345 3.604-8.109 5.851-13.397 5.851-0.165 0-0.33-0.002-0.494-0.007l0.024 0.001c-10.418-0.12-18.816-8.593-18.816-19.028 0-0.045 0-0.091 0-0.136v0.007c-0.010-0.201-0.015-0.436-0.015-0.673 0-4.547 2.015-8.624 5.202-11.386l0.019-0.016 116.267-116.48h-163.797c-4.968-0.293-9.418-2.3-12.814-5.432l0.014 0.013c-3.583-3.661-5.796-8.675-5.803-14.207v-0.428c-0.009-0.169-0.014-0.367-0.014-0.566 0-3.802 1.898-7.161 4.799-9.181l0.037-0.024c3.63-3.819 8.645-6.291 14.237-6.611l0.057-0.003h164.437l-116.523-116.181c-3.579-2.917-5.846-7.326-5.846-12.264 0-0.039 0-0.077 0-0.116v0.006c0.017-5.263 2.149-10.025 5.59-13.483l-0.001 0.001c3.478-3.459 8.273-5.598 13.568-5.598s10.090 2.138 13.569 5.598l115.199 115.199v-163.584c-0.005-0.16-0.008-0.349-0.008-0.538 0-4.963 2.119-9.431 5.501-12.55l0.012-0.011c3.621-3.532 8.574-5.712 14.036-5.717h0.001zM718.677 200.149c-10.91 0.073-20.652 5.009-27.177 12.746l-0.044 0.054c-7.060 6.64-11.457 16.042-11.457 26.471 0 0.444 0.008 0.886 0.024 1.326l-0.002-0.064c0.047 11.116 4.809 21.11 12.389 28.093l0.027 0.024c6.841 7.258 16.519 11.777 27.252 11.777 0.109 0 0.218 0 0.327-0.001h-0.017c21.8-0.651 39.341-18.013 40.274-39.679l0.003-0.086c0.003-0.168 0.004-0.367 0.004-0.565 0-11.175-4.774-21.236-12.393-28.253l-0.027-0.024c-7.261-7.158-17.2-11.615-28.18-11.733h-0.023zM695.936 240.384h5.419c-0.003-0.125-0.005-0.271-0.005-0.418 0-4.79 2.071-9.095 5.367-12.070l0.014-0.013c3.216-3.527 7.705-5.845 12.736-6.225l0.064-0.004c0.485-0.055 1.048-0.087 1.617-0.087 4.756 0 8.997 2.204 11.757 5.647l0.023 0.030c3.715 3.18 6.065 7.861 6.101 13.092v0.006c-0.567 10.413-8.998 18.68-19.427 18.986l-0.029 0.001c-4.601-0.276-8.699-2.229-11.734-5.249l0.001 0.001c-3.822-3.256-6.268-8.028-6.4-13.375v-0.022zM302.976 200.192c-10.88 0.087-20.591 5.021-27.091 12.746l-0.045 0.054c-7.083 6.65-11.496 16.073-11.496 26.526 0 0.409 0.007 0.817 0.020 1.224l-0.002-0.059c0.034 11.132 4.799 21.143 12.389 28.136l0.027 0.024c7.008 7.184 16.751 11.672 27.543 11.776h0.019c21.792-0.672 39.32-18.022 40.274-39.678l0.003-0.088c0.002-0.157 0.004-0.341 0.004-0.527 0-11.195-4.791-21.272-12.434-28.291l-0.028-0.025c-7.033-7.241-16.862-11.734-27.739-11.734-0.058 0-0.116 0-0.174 0h0.009zM278.656 240.427h7.040c-0.003-0.123-0.005-0.268-0.005-0.414 0-4.778 2.072-9.071 5.366-12.032l0.015-0.013c2.803-3.8 7.263-6.238 12.293-6.238 0.178 0 0.356 0.003 0.533 0.009l-0.026-0.001c0.061-0.001 0.133-0.001 0.205-0.001 5.162 0 9.824 2.142 13.145 5.585l0.005 0.006c3.696 3.205 6.028 7.898 6.059 13.136v0.005c-0.591 10.409-9.037 18.662-19.472 18.943l-0.027 0.001c-4.63-0.064-8.779-2.069-11.68-5.236l-0.011-0.012c-3.841-3.258-6.293-8.053-6.4-13.422v-0.018zM219.435 407.68c-0.026 0-0.056 0-0.087 0-10.869 0-20.713 4.384-27.862 11.48l0.002-0.002c-7.538 6.835-12.253 16.665-12.253 27.597 0 0.258 0.003 0.515 0.008 0.772l-0.001-0.038c0 0.009 0 0.020 0 0.031 0 11.11 4.391 21.194 11.533 28.612l-0.013-0.013c6.641 7.538 16.315 12.268 27.094 12.268 0.45 0 0.898-0.008 1.343-0.025l-0.064 0.002c0.334 0.011 0.726 0.017 1.12 0.017 10.94 0 20.76-4.793 27.476-12.394l0.034-0.039c7.026-7.316 11.352-17.27 11.352-28.235 0-0.169-0.001-0.337-0.003-0.505v0.026c0-0.048 0-0.104 0-0.161 0-10.927-4.509-20.801-11.767-27.862l-0.009-0.009c-7.099-7.117-16.916-11.52-27.762-11.52-0.020 0-0.040 0-0.060 0h0.003zM207.147 433.707c3.26-2.858 7.54-4.624 12.231-4.693h0.014c0.108-0.002 0.235-0.004 0.363-0.004 4.899 0 9.317 2.065 12.429 5.371l0.008 0.009c3.341 3.178 5.42 7.657 5.42 12.622 0 0.063 0 0.125-0.001 0.187v-0.010c0.004 0.138 0.005 0.301 0.005 0.464 0 5.273-2.084 10.059-5.473 13.58l0.006-0.006c-3.304 3.505-7.96 5.705-13.131 5.76h-0.010c-0.173 0.006-0.376 0.010-0.579 0.010-4.841 0-9.195-2.089-12.208-5.415l-0.012-0.014c-3.583-3.661-5.796-8.675-5.803-14.207v-0.257c-0.003-0.107-0.004-0.233-0.004-0.359 0-4.742 2.074-8.999 5.363-11.914l0.017-0.014zM805.163 408.107c-11.012 0.019-20.978 4.482-28.203 11.691l0.001-0.001c-4.052 4.004-7.216 8.899-9.175 14.367l-0.084 0.268-2.048-0.683v13.611c0 0.017 0 0.037 0 0.058 0 11.121 4.373 21.22 11.492 28.673l-0.015-0.016c6.955 7.546 16.888 12.257 27.921 12.257 0.324 0 0.647-0.004 0.969-0.012l-0.048 0.001c10.996-0.041 20.857-4.868 27.614-12.505l0.034-0.039c6.973-7.231 11.269-17.085 11.269-27.943 0-0.226-0.002-0.452-0.006-0.678v0.034c-0.375-21.473-17.66-38.787-39.085-39.21l-0.040-0.001zM786.901 450.347v-2.944c0-0.027 0-0.060 0-0.092 0-4.829 1.957-9.201 5.12-12.366v0c3.471-3.327 8.161-5.406 13.336-5.504h0.019c9.958 0.212 17.97 8.253 18.133 18.203v0.016c0.001 0.066 0.001 0.144 0.001 0.221 0 5.248-2.101 10.006-5.508 13.478l0.003-0.003c-2.987 3.508-7.396 5.728-12.325 5.76h-0.39c-0.061 0.001-0.134 0.001-0.207 0.001-4.98 0-9.462-2.133-12.582-5.535l-0.011-0.013c-2.925-2.984-4.915-6.893-5.493-11.248l-0.011-0.101zM718.635 615.083c-10.948 0.076-20.729 5.009-27.307 12.748l-0.043 0.052c-7.067 7.11-11.436 16.91-11.436 27.73 0 0.091 0 0.182 0.001 0.274v-0.014c0 0.017 0 0.037 0 0.057 0 11.173 4.772 21.232 12.389 28.249l0.027 0.024c6.619 7.254 16.112 11.787 26.665 11.787 0.316 0 0.631-0.004 0.945-0.012l-0.046 0.001c21.806-0.673 39.342-18.046 40.274-39.722l0.003-0.086c0-0.045 0-0.099 0-0.152 0-11.338-4.69-21.581-12.235-28.894l-0.010-0.010c-7.101-7.344-17.043-11.904-28.049-11.904-0.039 0-0.078 0-0.117 0h0.006l-0.981-0.256zM701.184 655.787c0-0.010 0-0.021 0-0.033 0-5.231 2.174-9.955 5.669-13.316l0.006-0.006c2.869-3.651 7.284-5.975 12.243-5.975 0.076 0 0.152 0.001 0.227 0.002h-0.011c0.085-0.001 0.186-0.002 0.286-0.002 5.102 0 9.707 2.127 12.977 5.542l0.006 0.007c3.694 3.427 6.022 8.282 6.101 13.682v0.014c-0.633 10.358-9.040 18.557-19.427 18.858l-0.029 0.001c-4.629-0.135-8.769-2.121-11.726-5.24l-0.007-0.008c-3.822-3.256-6.268-8.028-6.4-13.375v-0.022zM302.933 615.125c-10.922 0.078-20.675 5.012-27.22 12.747l-0.044 0.053c-7.093 7.114-11.478 16.931-11.478 27.772 0 0.076 0 0.152 0.001 0.229v-0.012c0 0.017 0 0.037 0 0.057 0 11.173 4.772 21.232 12.389 28.249l0.027 0.024c6.827 7.258 16.493 11.778 27.215 11.778 0.122 0 0.244-0.001 0.366-0.002h-0.019c21.806-0.673 39.342-18.046 40.274-39.722l0.003-0.086c0-0.034 0-0.075 0-0.116 0-11.349-4.689-21.603-12.236-28.93l-0.010-0.010c-7.121-7.345-17.080-11.904-28.103-11.904-0.035 0-0.070 0-0.105 0h0.005zM284.288 655.872h1.237c0.010-5.253 2.18-9.998 5.67-13.393l0.004-0.004c2.643-3.623 6.875-5.951 11.65-5.951 0.269 0 0.537 0.007 0.803 0.022l-0.037-0.002c0.082-0.001 0.179-0.002 0.276-0.002 5.14 0 9.779 2.143 13.072 5.585l0.006 0.007c3.665 3.426 5.974 8.262 6.058 13.638v0.015c-0.614 10.381-9.056 18.601-19.474 18.858h-0.025c-0.165 0.007-0.359 0.011-0.554 0.011-4.474 0-8.472-2.037-11.117-5.234l-0.019-0.024c-3.832-3.265-6.281-8.055-6.4-13.42v-0.020h-1.237zM512.427 701.952c-0.033 0-0.072 0-0.111 0-11.056 0-21.094 4.357-28.49 11.449l0.014-0.014c-7.533 6.799-12.248 16.598-12.248 27.498 0 0.143 0.001 0.286 0.002 0.428v-0.022c-0.002 0.155-0.004 0.337-0.004 0.52 0 11.155 4.756 21.198 12.351 28.214l0.026 0.024c7.214 7.046 17.091 11.392 27.983 11.392 0.032 0 0.065 0 0.097 0h1.19c10.799-0.101 20.53-4.59 27.511-11.767l0.009-0.009c7.123-7.228 11.522-17.158 11.522-28.116 0-0.151-0.001-0.301-0.002-0.451v0.023c-0.521-21.613-18.062-38.96-39.703-39.168h-0.020zM487.893 741.333h5.035c-0.002-0.086-0.003-0.188-0.003-0.289 0-4.715 2.056-8.95 5.32-11.857l0.016-0.014c3.653-3.57 8.649-5.779 14.161-5.803h0.004c10.062 0.092 18.214 8.14 18.474 18.152v0.024c0.001 0.069 0.001 0.15 0.001 0.232 0 5.074-2.055 9.668-5.378 12.995v0c-3.339 3.193-7.815 5.221-12.762 5.417l-0.038 0.001c-0.078 0.001-0.169 0.002-0.261 0.002-5.331 0-10.171-2.098-13.741-5.513l0.007 0.007c-3.543-3.185-5.762-7.784-5.762-12.9 0-0.085 0.001-0.169 0.002-0.254v0.013z" />
<glyph unicode="&#xe934;" glyph-name="speciallocationoutline" d="M512 832c157.867 0 277.333-128 277.333-298.667s-183.467-356.267-277.333-452.267c-93.867 96-277.333 292.267-277.333 452.267-0.116 3.054-0.182 6.64-0.182 10.241 0 155.499 122.963 282.278 276.959 288.408l0.557 0.018zM512 917.333c-211.2 0-362.667-172.8-362.667-384s245.333-454.4 332.8-541.867c7.434-8.083 18.061-13.13 29.867-13.13s22.432 5.047 29.84 13.101l0.026 0.029c87.467 87.467 332.8 326.4 332.8 541.867s-151.467 384-362.667 384zM620.8 599.467l-61.867 8.533-27.733 61.867c-3.536 7.181-10.801 12.034-19.2 12.034s-15.664-4.854-19.144-11.909l-0.056-0.125-27.733-61.867-61.867-8.533c-10.701-2.328-18.598-11.72-18.598-22.956 0-5.927 2.197-11.34 5.821-15.471l-0.023 0.027 44.8-42.667-10.667-66.133c-0.036-0.487-0.057-1.056-0.057-1.629 0-12.96 10.506-23.467 23.467-23.467 3.092 0 6.044 0.598 8.748 1.685l-0.158-0.056 55.467 40.533 55.467-40.533c2.545-1.031 5.498-1.629 8.59-1.629 12.96 0 23.467 10.506 23.467 23.467 0 0.573-0.021 1.141-0.061 1.704l0.004-0.075-10.667 66.133 44.8 42.667c3.601 4.104 5.798 9.517 5.798 15.444 0 11.236-7.897 20.628-18.443 22.928l-0.155 0.028z" />
<glyph unicode="&#xe935;" glyph-name="staroutline" d="M1024 561.845l-358.4 44.574-153.6 323.464-153.6-323.464-358.4-44.574 263.228-244.555-67.464-350.569v-0.602l316.235 172.273 316.235-172.273-68.066 351.172zM512 241.393l-191.548-104.207 40.96 212.028-157.816 146.974 215.040 26.504 93.365 196.367 93.365-196.367 215.040-26.504-158.419-146.974 40.96-212.028zM1024 561.845l-358.4 44.574-153.6 323.464-153.6-323.464-358.4-44.574 263.228-244.555-68.066-351.172h0.602v0.602l316.235 171.671 316.235-172.273-68.066 351.172zM512 241.393l-191.548-104.207 40.96 212.028-157.816 146.974 215.040 26.504 93.365 196.367 93.365-196.367 215.040-26.504-158.419-146.974 40.96-212.028z" />
<glyph unicode="&#xe936;" glyph-name="star" d="M512 789.333l115.2-243.499 268.8-33.536-197.589-184.064 50.901-264.235-237.312 129.749-237.312-129.749 50.944 264.235-197.632 184.064 268.8 33.536z" />
<glyph unicode="&#xe937;" glyph-name="strollerstroke" d="M388.309 122.581c-12.756 0.010-25.057 1.943-36.634 5.525l0.879-0.234c-31.889 9.69-57.698 31.097-72.937 59.089l-0.321 0.645c-9.236 16.908-14.667 37.036-14.667 58.434 0 43.068 22.004 80.997 55.384 103.158l0.457 0.285c-14.293 28.117-49.707 103.936-60.885 128h-75.477v85.803h130.005l30.677-64h473.6v-10.667c-0.064-58.868-19.042-113.291-51.182-157.533l0.537 0.776c17.218-17.983 29.078-41.222 32.941-67.076l0.083-0.679c0.837-5.384 1.316-11.594 1.316-17.915 0-27.795-9.248-53.43-24.834-73.996l0.222 0.306c-19.169-25.648-47.68-43.402-80.401-48.218l-0.666-0.080c-5.344-0.82-11.508-1.288-17.782-1.288-27.842 0-53.53 9.218-74.181 24.768l0.315-0.227c-23.248 17.396-39.962 42.41-46.479 71.287l-0.155 0.819h-49.365c-8.194-35.719-30.922-64.986-61.478-81.766l-0.644-0.324c-16.851-9.33-36.939-14.841-58.31-14.891h-0.015zM205.44 498.944h67.797l2.816-6.187c23.467-50.517 62.549-133.547 67.584-141.312l6.272-9.685-10.197-5.504c-32.241-17.67-53.736-51.374-53.736-90.098 0-17.707 4.494-34.364 12.404-48.893l-0.268 0.537c17.67-32.241 51.374-53.736 90.098-53.736 17.707 0 34.364 4.494 48.893 12.404l-0.537-0.268c28.037 15.342 47.867 42.676 52.667 74.917l0.069 0.561 1.323 9.131h85.632l1.323-9.131c4.019-27.667 18.704-51.304 39.672-67.011l0.264-0.189c16.745-12.701 37.932-20.346 60.906-20.346 5.262 0 10.431 0.401 15.477 1.175l-0.564-0.071c49.786 7.523 87.509 50.012 87.509 101.311 0 5.095-0.372 10.103-1.091 14.999l0.067-0.556c-3.686 24.695-15.724 46.073-33.096 61.609l-0.099 0.087-7.467 6.656 6.144 7.893c30.235 38.623 49.314 87.273 51.693 140.27l0.019 0.53h-465.707l-30.677 64h-95.189zM679.040 187.221v0c-32.593 0.048-59.002 26.457-59.051 59.046v0.005c0.048 32.593 26.457 59.002 59.046 59.051h0.005c32.593-0.048 59.002-26.457 59.051-59.046v-0.005c0.001-0.125 0.002-0.272 0.002-0.42 0-16.138-6.52-30.752-17.070-41.353l0.002 0.002c-10.599-10.55-25.215-17.073-41.355-17.073-0.296 0-0.592 0.002-0.887 0.007l0.045-0.001zM679.040 283.989c-20.811-0.048-37.669-16.906-37.717-37.713v-0.005c0.024-20.821 16.896-37.693 37.715-37.717h0.002c0.027 0 0.060 0 0.092 0 10.373 0 19.758 4.225 26.53 11.048l0.002 0.002c6.8 6.776 11.008 16.151 11.008 26.508 0 0.056 0 0.112 0 0.168v-0.009c-0.007 10.456-4.263 19.917-11.134 26.75l-0.002 0.002c-6.824 6.777-16.226 10.966-26.606 10.966-0.066 0-0.133 0-0.199-0.001h0.010zM388.907 187.221v0c-32.593 0.048-59.002 26.457-59.051 59.046v0.005c0.048 32.593 26.457 59.002 59.046 59.051h0.005c32.593-0.048 59.002-26.457 59.051-59.046v-0.005c0-0.015 0-0.032 0-0.049 0-16.378-6.672-31.197-17.447-41.888l-0.004-0.004c-10.656-10.551-25.322-17.069-41.51-17.069-0.197 0-0.393 0.001-0.589 0.003h0.030zM388.907 283.989c-20.821-0.024-37.693-16.896-37.717-37.715v-0.002c0-20.831 16.887-37.717 37.717-37.717v0c20.789 0.024 37.632 16.883 37.632 37.675 0 0.015 0 0.030 0 0.045v-0.002c-0.007 10.499-4.297 19.994-11.218 26.834l-0.004 0.004c-6.815 6.727-16.183 10.883-26.522 10.883-0.156 0-0.311-0.001-0.467-0.003h0.024zM819.072 509.867h-279.467v279.467h10.837c74.078-0.008 141.106-30.187 189.466-78.917l0.016-0.017c48.576-48.348 78.636-115.263 78.636-189.198 0-0.295 0-0.59-0.001-0.885v0.046zM560.939 531.2h236.544c-2.62 64.422-29.7 122.053-72.138 164.256l-0.011 0.011c-42.223 42.577-99.887 69.784-163.89 72.516l-0.505 0.017z" />
<glyph unicode="&#xe938;" glyph-name="stroller-fill" d="M572.885 854.059v-312.107h312.107c0 0.025 0 0.055 0 0.085 0 172.325-139.697 312.021-312.021 312.021-0.030 0-0.060 0-0.090 0h0.004zM819.456 312.192c40.864 52.024 65.536 118.453 65.536 190.644 0 0.042 0 0.084 0 0.126v-0.007h-568.021l-37.077 78.037h-136.149v-78.080h86.613s73.728-158.805 82.731-172.459c-43.136-23.518-71.914-68.535-71.914-120.273 0-75.405 61.128-136.533 136.533-136.533 68.555 0 125.309 50.526 135.055 116.371l0.091 0.745h81.067c9.676-66.762 66.514-117.477 135.197-117.477 75.405 0 136.533 61.128 136.533 136.533 0 40.696-17.805 77.234-46.051 102.248l-0.143 0.125zM377.813 151.808c-32.218 0.086-58.303 26.223-58.303 58.453 0 32.283 26.17 58.453 58.453 58.453s58.453-26.17 58.453-58.453c0-16.168-6.564-30.803-17.173-41.385l-0.001-0.001c-10.586-10.546-25.188-17.067-41.314-17.067-0.041 0-0.081 0-0.122 0h0.006zM728.96 151.808c-32.218 0.086-58.303 26.223-58.303 58.453 0 32.283 26.17 58.453 58.453 58.453s58.453-26.17 58.453-58.453c0-16.168-6.564-30.803-17.173-41.385l-0.001-0.001c-10.586-10.546-25.188-17.067-41.314-17.067-0.041 0-0.081 0-0.122 0h0.006zM572.928 854.059v-312.107h312.107c0 0.025 0 0.055 0 0.085 0 172.325-139.697 312.021-312.021 312.021-0.030 0-0.060 0-0.090 0h0.004z" />
<glyph unicode="&#xe939;" glyph-name="sucess" d="M521.557 835.157c208.543 0 377.6-169.057 377.6-377.6s-169.057-377.6-377.6-377.6c-208.543 0-377.6 169.057-377.6 377.6v0c0 208.543 169.057 377.6 377.6 377.6v0zM521.557 919.083c-252.845-1.179-457.359-206.421-457.359-459.43 0-253.739 205.696-459.435 459.435-459.435s459.435 205.696 459.435 459.435c0 126.864-51.42 241.719-134.555 324.859v0c-83.142 83.147-198.005 134.575-324.879 134.575-0.73 0-1.459-0.002-2.188-0.005h0.112zM408.277 281.344l-125.867 123.733c-7.796 7.944-12.607 18.841-12.607 30.861 0 9.691 3.128 18.651 8.428 25.926l-0.087-0.126c7.254 10.724 19.372 17.681 33.114 17.681 11.846 0 22.484-5.169 29.784-13.374l0.035-0.040 96.512-96.512 264.533 264.533c6.948 5.3 15.753 8.492 25.303 8.492 23.164 0 41.941-18.778 41.941-41.941 0-9.55-3.192-18.355-8.567-25.405l0.075 0.102-293.717-293.717c-7.31-7.955-17.763-12.922-29.376-12.922s-22.066 4.968-29.35 12.894l-0.026 0.029z" />
<glyph unicode="&#xe93a;" glyph-name="time" d="M515.797 825.429c210.522 0 381.184-170.662 381.184-381.184s-170.662-381.184-381.184-381.184c-210.522 0-381.184 170.662-381.184 381.184v0c0 210.522 170.662 381.184 381.184 381.184v0zM515.797 910.123c-255.185-1.231-461.577-208.382-461.577-463.739 0-256.119 207.625-463.744 463.744-463.744s463.744 207.625 463.744 463.744c0 128.067-51.912 244.009-135.842 327.931v0c-83.92 83.913-199.85 135.813-327.902 135.813-0.762 0-1.523-0.002-2.284-0.006h0.117zM727.552 274.859c-0.264-0.007-0.574-0.011-0.886-0.011-7.645 0-14.734 2.383-20.565 6.446l0.117-0.078-232.789 139.819v234.965c-0.014 0.401-0.021 0.872-0.021 1.344 0 23.399 18.969 42.368 42.368 42.368s42.368-18.969 42.368-42.368c0-0.473-0.008-0.944-0.023-1.413l0.002 0.068v-188.459l190.592-114.347c12.318-7.517 20.416-20.883 20.416-36.141 0-23.147-18.638-41.942-41.725-42.195h-0.024z" />
<glyph unicode="&#xe93b;" glyph-name="twitter" d="M967.552 745.557c-31.778-14.935-68.648-25.997-107.352-31.306l-2.003-0.225c39.098 24.154 68.677 60.5 83.718 103.658l0.421 1.387c-34.499-19.284-74.441-35.17-116.539-45.591l-3.354-0.702c-34.951 36.793-84.237 59.681-138.868 59.681-104.505 0-189.449-83.753-191.369-187.8l-0.003-0.18c0.081-15.704 2.414-30.833 6.691-45.121l-0.291 1.132c-157.936 8.418-296.892 83.15-390.602 196.627l-0.737 0.919c-17.091-26.845-27.269-59.543-27.349-94.613v-0.022c0-0.072 0-0.158 0-0.243 0-65.888 34.043-123.825 85.5-157.18l0.73-0.443c-0.156-0.001-0.341-0.001-0.526-0.001-31.575 0-61.144 8.59-86.497 23.56l0.794-0.434c-0.020-1.024-0.032-2.231-0.032-3.44 0-90.738 64.566-166.397 150.261-183.539l1.195-0.199c-14.998-4.97-32.292-8.056-50.237-8.528l-0.238-0.005-35.755 4.267c25.803-76.135 95.681-130.359 178.521-132.517l0.252-0.005c-63.998-49.846-145.533-79.917-234.092-79.917-0.517 0-1.034 0.001-1.551 0.003h-46.171c81.453-53.967 181.458-86.103 288.969-86.103 0.409 0 0.818 0 1.227 0.001h-0.063c0.89-0.005 1.942-0.008 2.995-0.008 296.908 0 537.6 240.692 537.6 537.6 0 1.053-0.003 2.105-0.009 3.157l0.001-0.162v27.307c37.368 27.35 68.824 60.15 93.884 97.593l0.878 1.394z" />
<glyph unicode="&#xe93c;" glyph-name="twitter-outline" d="M376.405 85.717c-103.542 0.826-200.406 28.664-284.118 76.8l2.817-1.493c-11.239 6.307-18.709 18.148-18.709 31.733 0 3.482 0.491 6.85 1.407 10.037l-0.063-0.256c4.205 15.383 18.056 26.503 34.504 26.503 0.665 0 1.326-0.018 1.982-0.054l-0.091 0.004c4.842-0.219 10.519-0.344 16.225-0.344 58.333 0 113.616 13.056 163.087 36.405l-2.331-0.989c-276.181 169.643-140.501 484.608-139.008 487.979 5.371 11.775 16.519 20.079 29.722 21.322l0.145 0.011c1.126 0.125 2.432 0.197 3.755 0.197 12.165 0 22.917-6.054 29.406-15.314l0.077-0.115c59.219-83.767 152.669-139.95 259.551-148.109l1.185-0.073c-0.003 0.375-0.004 0.818-0.004 1.261 0 109.903 89.094 198.997 198.997 198.997 51.032 0 97.577-19.209 132.799-50.791l-0.187 0.165c31.745 11.833 59.195 26.548 84.262 44.395l-1.105-0.747c5.829 4.162 13.099 6.655 20.952 6.655 20.053 0 36.309-16.256 36.309-36.309 0-3.105-0.39-6.12-1.123-8.997l0.054 0.251c-13.261-53.291-38.499-99.47-72.773-137.314l0.24 0.269q0.811-8.747 0.853-17.664c0-199.083-88.149-365.056-241.835-455.509-72.875-43.313-160.67-68.913-254.444-68.913-0.892 0-1.783 0.002-2.674 0.007l0.137-0.001zM256.427 173.824c35.283-10.052 75.806-15.832 117.679-15.832 81.849 0 158.54 22.084 224.439 60.619l-2.107-1.139c124.819 78.719 206.526 215.86 206.526 372.084 0 7.282-0.178 14.523-0.529 21.719l0.039-1.014c-0.045 8.253-0.882 16.283-2.438 24.053l0.134-0.8c-0.413 2.057-0.65 4.421-0.65 6.84 0 10.132 4.15 19.294 10.843 25.881l0.005 0.005c7.857 7.839 15.194 16.191 21.96 25.004l0.44 0.596q-12.288-4.523-24.96-8.533c-3.136-0.981-6.741-1.547-10.478-1.547-10.903 0-20.682 4.811-27.33 12.426l-0.037 0.043c-23.282 26.716-57.367 43.505-95.373 43.505-69.75 0-126.293-56.543-126.293-126.293 0-0.64 0.005-1.278 0.014-1.916l-0.001 0.096v-36.779c0-0.003 0-0.007 0-0.011 0-19.738-15.749-35.798-35.367-36.297l-0.046-0.001c-3.572-0.109-7.773-0.171-11.989-0.171-118.068 0-224.784 48.603-301.231 126.893l-0.081 0.083c-8.003-25.648-12.613-55.137-12.613-85.703 0-127.336 80.008-235.986 192.496-278.42l2.048-0.678c12.813-5.782 21.57-18.446 21.57-33.156 0-12.442-6.266-23.421-15.814-29.953l-0.124-0.080c-37.529-25.896-80.983-46.894-127.53-60.7l-3.244-0.826z" />
<glyph unicode="&#xe93d;" glyph-name="user" d="M525.355 894.336c-132.996 0-240.811-107.815-240.811-240.811s107.815-240.811 240.811-240.811c132.996 0 240.811 107.815 240.811 240.811v0c0 132.996-107.815 240.811-240.811 240.811v0zM525.355 500.309c-84.619 0-153.216 68.597-153.216 153.216s68.597 153.216 153.216 153.216c84.619 0 153.216-68.597 153.216-153.216v0c0-84.619-68.597-153.216-153.216-153.216v0zM899.712 215.723c-104.933 68.623-233.443 109.446-371.487 109.446-1.009 0-2.018-0.002-3.026-0.007l0.156 0.001c-0.355 0.001-0.776 0.001-1.197 0.001-138.313 0-267.294-39.96-376.026-108.964l2.865 1.699-19.669-13.141v-186.069c0-24.177 19.599-43.776 43.776-43.776v0h700.501c24.177 0 43.776 19.599 43.776 43.776v0 186.069zM831.829 62.123h-612.949v94.507c88.096 50.905 193.764 80.975 306.448 81.067h0.027c0.329 0.001 0.718 0.001 1.108 0.001 112.603 0 217.985-30.916 308.12-84.724l-2.753 1.523z" />
</font>
</defs>
</svg>
